<?xml version="1.0" encoding="UTF-8"?>
<svg width="12px" height="12px" viewBox="0 0 12 12" version="1.1" xmlns="http://www.w3.org/2000/svg" xmlns:xlink="http://www.w3.org/1999/xlink">
    <!-- Generator: Sketch 42 (36781) - http://www.bohemiancoding.com/sketch -->
    <title>price</title>
    <desc>Created with Sketch.</desc>
    <defs></defs>
    <g id="Mobile-flow" stroke="none" stroke-width="1" fill="none" fill-rule="evenodd">
        <g id="Mobile-start" transform="translate(-21.000000, -487.000000)" fill="#E3232D">
            <g id="USP" transform="translate(19.000000, 369.000000)">
                <g id="Group-2" transform="translate(0.000000, 112.000000)">
                    <path d="M8,6 C9.65741569,6 11.0717534,6.58564229 12.2430556,7.75694444 C13.4143577,8.9282466 14,10.3425843 14,12 C14,13.6574157 13.4143577,15.0717534 12.2430556,16.2430556 C11.0717534,17.4143577 9.65741569,18 8,18 C6.34258431,18 4.9282466,17.4143577 3.75694444,16.2430556 C2.58564229,15.0717534 2,13.6574157 2,12 C2,10.3425843 2.58564229,8.9282466 3.75694444,7.75694444 C4.9282466,6.58564229 6.34258431,6 8,6 L8,6 Z M8.75,15.6944444 C9.38889208,15.5925921 9.92360896,15.3634277 10.3541667,15.0069444 C10.7847244,14.6504612 11,14.1481514 11,13.5 C11,12.9907382 10.88889,12.5763905 10.6666667,12.2569444 C10.4444433,11.9374984 10.1666683,11.7222228 9.83333333,11.6111111 C9.49999833,11.4999994 9.13889083,11.4120374 8.75,11.3472222 C8.36110917,11.2824071 8.00000167,11.2407408 7.66666667,11.2222222 C7.33333167,11.2037036 7.05555667,11.1365747 6.83333333,11.0208333 C6.61111,10.905092 6.5,10.7314826 6.5,10.5 C6.5,10.2592581 6.64814667,10.0740747 6.94444444,9.94444444 C7.24074222,9.81481417 7.59259056,9.75 8,9.75 C8.66667,9.75 9.33333,9.916665 10,10.25 L10.75,9 C10.2685161,8.63888708 9.60185611,8.40277833 8.75,8.29166667 L8.75,7.5 L7.25,7.5 L7.25,8.30555556 C6.61110792,8.40740792 6.07639104,8.63657229 5.64583333,8.99305556 C5.21527563,9.34953882 5,9.85184861 5,10.5 C5,11.0092618 5.11111,11.4236095 5.33333333,11.7430556 C5.55555667,12.0625016 5.83333167,12.2777772 6.16666667,12.3888889 C6.50000167,12.5000006 6.86110917,12.5879626 7.25,12.6527778 C7.63889083,12.7175929 7.99999833,12.7592592 8.33333333,12.7777778 C8.66666833,12.7962964 8.94444333,12.8634253 9.16666667,12.9791667 C9.38889,13.094908 9.5,13.2685174 9.5,13.5 C9.5,13.7407419 9.35185333,13.9259253 9.05555556,14.0555556 C8.75925778,14.1851858 8.40740944,14.25 8,14.25 C7.33333,14.25 6.66667,14.083335 6,13.75 L5.25,15 C5.73148389,15.3611129 6.39814389,15.5972217 7.25,15.7083333 L7.25,16.5 L8.75,16.5 L8.75,15.6944444 Z" id="price"></path>
                </g>
            </g>
        </g>
    </g>
</svg>