<?xml version="1.0" encoding="UTF-8"?>
<svg width="12px" height="13px" viewBox="0 0 12 13" version="1.1" xmlns="http://www.w3.org/2000/svg" xmlns:xlink="http://www.w3.org/1999/xlink">
    <!-- Generator: Sketch 42 (36781) - http://www.bohemiancoding.com/sketch -->
    <title>Star</title>
    <desc>Created with Sketch.</desc>
    <defs></defs>
    <g id="Mobile-flow" stroke="none" stroke-width="1" fill="none" fill-rule="evenodd">
        <g id="Mobile-start" transform="translate(-20.000000, -373.000000)" fill="#E3232D">
            <g id="USP" transform="translate(19.000000, 369.000000)">
                <g id="Quality">
                    <g id="Group-12" transform="translate(1.000000, 0.000000)">
                        <path d="M11.9259829,9.20203473 L9.01156507,12.1031336 L9.74710861,15.9758923 C9.76561294,16.0869397 9.72860483,16.170224 9.63608317,16.2257477 C9.5990745,16.2535096 9.55281437,16.2673903 9.49730137,16.2673903 C9.44178837,16.2673903 9.39552823,16.2535096 9.35851957,16.2257477 L6,14.0603342 L2.64148043,16.2257477 C2.54895877,16.2905254 2.45643849,16.2905254 2.36391683,16.2257477 C2.27139517,16.170224 2.23438706,16.0869397 2.25289139,15.9758923 L2.98843493,12.1031336 L0.0740171247,9.20203473 C-2.05602468e-07,9.12800313 -0.0185042606,9.03546502 0.0185044045,8.92441762 C0.064765236,8.82262417 0.14340747,8.7717282 0.254433465,8.7717282 L4.08481116,8.7717282 L5.76407094,4.44090122 C5.81033177,4.32985382 5.888974,4.27433096 6,4.27433096 C6.111026,4.27433096 6.18966823,4.32985382 6.23592906,4.44090122 L7.91518884,8.7717282 L11.7455665,8.7717282 C11.8565925,8.7717282 11.9352348,8.82262417 11.9814956,8.92441762 C12.0185043,9.03546502 12.0000002,9.12800313 11.9259829,9.20203473 Z" id="Star"></path>
                    </g>
                </g>
            </g>
        </g>
    </g>
</svg>