<?xml version="1.0" encoding="UTF-8"?>
<svg width="16px" height="16px" viewBox="0 0 16 16" version="1.1" xmlns="http://www.w3.org/2000/svg" xmlns:xlink="http://www.w3.org/1999/xlink">
    <!-- Generator: Sketch 42 (36781) - http://www.bohemiancoding.com/sketch -->
    <title>star copy 4</title>
    <desc>Created with Sketch.</desc>
    <defs></defs>
    <g id="Desktop" stroke="none" stroke-width="1" fill="none" fill-rule="evenodd">
        <g id="Startpage-generic-v1" transform="translate(-578.000000, -3818.000000)" fill="#000000">
            <g id="Group-27" transform="translate(38.000000, 3735.000000)">
                <g id="Group-26" transform="translate(433.000000, 9.000000)">
                    <g id="Group-23" transform="translate(0.000000, 74.000000)">
                        <path d="M122.340388,6.26102293 L118.636684,9.94708995 L119.571429,14.8677249 C119.594944,15.008819 119.547914,15.1146381 119.430335,15.1851852 C119.383304,15.2204587 119.324515,15.2380952 119.253968,15.2380952 C119.183421,15.2380952 119.124633,15.2204587 119.077601,15.1851852 L114.809524,12.4338624 L110.541446,15.1851852 C110.423868,15.2674901 110.306291,15.2674901 110.188713,15.1851852 C110.071134,15.1146381 110.024103,15.008819 110.047619,14.8677249 L110.982363,9.94708995 L107.27866,6.26102293 C107.184597,6.16696014 107.161081,6.04938342 107.208113,5.90828924 C107.266902,5.77895291 107.366842,5.71428571 107.507937,5.71428571 L112.375661,5.71428571 L114.5097,0.211640212 C114.568489,0.0705460317 114.66843,0 114.809524,0 C114.950618,0 115.050558,0.0705460317 115.109347,0.211640212 L117.243386,5.71428571 L122.111111,5.71428571 C122.252205,5.71428571 122.352146,5.77895291 122.410935,5.90828924 C122.457966,6.04938342 122.434451,6.16696014 122.340388,6.26102293 Z" id="star-copy-4"></path>
                    </g>
                </g>
            </g>
        </g>
    </g>
</svg>