<?xml version="1.0" encoding="UTF-8"?>
<svg width="13px" height="9px" viewBox="0 0 13 9" version="1.1" xmlns="http://www.w3.org/2000/svg" xmlns:xlink="http://www.w3.org/1999/xlink">
    <!-- Generator: Sketch 42 (36781) - http://www.bohemiancoding.com/sketch -->
    <title>menu</title>
    <desc>Created with Sketch.</desc>
    <defs></defs>
    <g id="Menu-behaviour" stroke="none" stroke-width="1" fill="none" fill-rule="evenodd">
        <g id="Mobile-product-page---country-specific" transform="translate(-287.000000, -28.000000)" fill="#000000">
            <path d="M287.5,28 L299.5,28 C299.635417,28 299.752604,28.0494787 299.851562,28.1484375 C299.950521,28.2473963 300,28.3645827 300,28.5 C300,28.6354173 299.950521,28.7526037 299.851562,28.8515625 C299.752604,28.9505213 299.635417,29 299.5,29 L287.5,29 C287.364583,29 287.247396,28.9505213 287.148438,28.8515625 C287.049479,28.7526037 287,28.6354173 287,28.5 C287,28.3645827 287.049479,28.2473963 287.148438,28.1484375 C287.247396,28.0494787 287.364583,28 287.5,28 Z M299.5,33 L287.5,33 C287.364583,33 287.247396,32.9505213 287.148438,32.8515625 C287.049479,32.7526037 287,32.6354173 287,32.5 C287,32.3645827 287.049479,32.2473963 287.148438,32.1484375 C287.247396,32.0494787 287.364583,32 287.5,32 L299.5,32 C299.635417,32 299.752604,32.0494787 299.851562,32.1484375 C299.950521,32.2473963 300,32.3645827 300,32.5 C300,32.6354173 299.950521,32.7526037 299.851562,32.8515625 C299.752604,32.9505213 299.635417,33 299.5,33 Z M299.5,37 L287.5,37 C287.364583,37 287.247396,36.9505213 287.148438,36.8515625 C287.049479,36.7526037 287,36.6354173 287,36.5 C287,36.3645827 287.049479,36.2473963 287.148438,36.1484375 C287.247396,36.0494787 287.364583,36 287.5,36 L299.5,36 C299.635417,36 299.752604,36.0494787 299.851562,36.1484375 C299.950521,36.2473963 300,36.3645827 300,36.5 C300,36.6354173 299.950521,36.7526037 299.851562,36.8515625 C299.752604,36.9505213 299.635417,37 299.5,37 Z" id="menu"></path>
        </g>
    </g>
</svg>