<?xml version="1.0" encoding="UTF-8"?>
<svg width="22px" height="22px" viewBox="0 0 22 22" version="1.1" xmlns="http://www.w3.org/2000/svg" xmlns:xlink="http://www.w3.org/1999/xlink">
    <!-- Generator: Sketch 42 (36781) - http://www.bohemiancoding.com/sketch -->
    <title>icon - Day</title>
    <desc>Created with Sketch.</desc>
    <defs>
        <filter x="-50%" y="-50%" width="200%" height="200%" filterUnits="objectBoundingBox" id="filter-1">
            <feOffset dx="0" dy="1" in="SourceAlpha" result="shadowOffsetOuter1"></feOffset>
            <feGaussianBlur stdDeviation="1" in="shadowOffsetOuter1" result="shadowBlurOuter1"></feGaussianBlur>
            <feColorMatrix values="0 0 0 0 0   0 0 0 0 0   0 0 0 0 0  0 0 0 0.5 0" type="matrix" in="shadowBlurOuter1" result="shadowMatrixOuter1"></feColorMatrix>
            <feMerge>
                <feMergeNode in="shadowMatrixOuter1"></feMergeNode>
                <feMergeNode in="SourceGraphic"></feMergeNode>
            </feMerge>
        </filter>
    </defs>
    <g id="Desktop" stroke="none" stroke-width="1" fill="none" fill-rule="evenodd">
        <g id="Desktop-rate-v1" transform="translate(-973.000000, -153.000000)">
            <g id="Group-17" transform="translate(399.000000, 148.000000)">
                <g id="Group-16" transform="translate(465.000000, 1.000000)">
                    <g id="Group-15" transform="translate(111.000000, 5.000000)">
                        <g id="icon---Day" filter="url(#filter-1)">
                            <circle id="Oval-4" fill="#FFE187" cx="9" cy="9" r="9"></circle>
                            <path d="M9,6.375 C9.72265986,6.375 10.3408177,6.63183337 10.8544922,7.14550781 C11.3681666,7.65918226 11.625,8.27734014 11.625,9 C11.625,9.72265986 11.3681666,10.3408177 10.8544922,10.8544922 C10.3408177,11.3681666 9.72265986,11.625 9,11.625 C8.27734014,11.625 7.65918226,11.3681666 7.14550781,10.8544922 C6.63183337,10.3408177 6.375,9.72265986 6.375,9 C6.375,8.27734014 6.63183337,7.65918226 7.14550781,7.14550781 C7.65918226,6.63183337 8.27734014,6.375 9,6.375 L9,6.375 Z M9,10.875 C9.51953385,10.875 9.96191224,10.6923846 10.3271484,10.3271484 C10.6923846,9.96191224 10.875,9.51953385 10.875,9 C10.875,8.48046615 10.6923846,8.03808776 10.3271484,7.67285156 C9.96191224,7.30761536 9.51953385,7.125 9,7.125 C8.48437242,7.125 8.04297059,7.30761536 7.67578125,7.67285156 C7.30859191,8.03808776 7.125,8.48046615 7.125,9 C7.125,9.51953385 7.30859191,9.96191224 7.67578125,10.3271484 C8.04297059,10.6923846 8.48437242,10.875 9,10.875 L9,10.875 Z M9,5.625 C8.89843699,5.625 8.81054725,5.587891 8.73632812,5.51367187 C8.662109,5.43945275 8.625,5.35156301 8.625,5.25 L8.625,3.375 C8.625,3.27343699 8.662109,3.18554725 8.73632812,3.11132812 C8.81054725,3.037109 8.89843699,3 9,3 C9.10156301,3 9.18945275,3.037109 9.26367188,3.11132812 C9.337891,3.18554725 9.375,3.27343699 9.375,3.375 L9.375,5.25 C9.375,5.35156301 9.337891,5.43945275 9.26367188,5.51367187 C9.18945275,5.587891 9.10156301,5.625 9,5.625 L9,5.625 Z M9,12.375 C9.10156301,12.375 9.18945275,12.412109 9.26367188,12.4863281 C9.337891,12.5605472 9.375,12.648437 9.375,12.75 L9.375,14.625 C9.375,14.726563 9.337891,14.8144528 9.26367188,14.8886719 C9.18945275,14.962891 9.10156301,15 9,15 C8.89843699,15 8.81054725,14.962891 8.73632812,14.8886719 C8.662109,14.8144528 8.625,14.726563 8.625,14.625 L8.625,12.75 C8.625,12.648437 8.662109,12.5605472 8.73632812,12.4863281 C8.81054725,12.412109 8.89843699,12.375 9,12.375 L9,12.375 Z M14.625,8.625 C14.726563,8.625 14.8144528,8.662109 14.8886719,8.73632812 C14.962891,8.81054725 15,8.89843699 15,9 C15,9.10156301 14.962891,9.18945275 14.8886719,9.26367188 C14.8144528,9.337891 14.726563,9.375 14.625,9.375 L12.75,9.375 C12.648437,9.375 12.5605472,9.337891 12.4863281,9.26367188 C12.412109,9.18945275 12.375,9.10156301 12.375,9 C12.375,8.89843699 12.412109,8.81054725 12.4863281,8.73632812 C12.5605472,8.662109 12.648437,8.625 12.75,8.625 L14.625,8.625 Z M5.625,9 C5.625,9.10156301 5.587891,9.18945275 5.51367187,9.26367188 C5.43945275,9.337891 5.35156301,9.375 5.25,9.375 L3.375,9.375 C3.27343699,9.375 3.18554725,9.337891 3.11132812,9.26367188 C3.037109,9.18945275 3,9.10156301 3,9 C3,8.89843699 3.037109,8.81054725 3.11132812,8.73632812 C3.18554725,8.662109 3.27343699,8.625 3.375,8.625 L5.25,8.625 C5.35156301,8.625 5.43945275,8.662109 5.51367187,8.73632812 C5.587891,8.81054725 5.625,8.89843699 5.625,9 L5.625,9 Z M11.9179688,11.3847656 L13.2421875,12.7148438 C13.3164066,12.7890629 13.3535156,12.8769526 13.3535156,12.9785156 C13.3535156,13.0800786 13.3164066,13.1679684 13.2421875,13.2421875 C13.1601558,13.3164066 13.0722661,13.3535156 12.9785156,13.3535156 C12.8769526,13.3535156 12.7890629,13.3164066 12.7148438,13.2421875 L11.3847656,11.9179688 C11.3105465,11.8437496 11.2734375,11.7548833 11.2734375,11.6513672 C11.2734375,11.547851 11.3105465,11.4589847 11.3847656,11.3847656 C11.4589847,11.3105465 11.547851,11.2734375 11.6513672,11.2734375 C11.7548833,11.2734375 11.8437496,11.3105465 11.9179688,11.3847656 L11.9179688,11.3847656 Z M6.08203125,6.61523438 L4.7578125,5.28515625 C4.68359338,5.21093713 4.64648438,5.12304738 4.64648438,5.02148438 C4.64648438,4.91992137 4.68359338,4.83203162 4.7578125,4.7578125 C4.83203162,4.68359338 4.91992137,4.64648438 5.02148438,4.64648438 C5.12304738,4.64648438 5.21093713,4.68359338 5.28515625,4.7578125 L6.61523438,6.08203125 C6.6894535,6.15625037 6.7265625,6.24511667 6.7265625,6.34863281 C6.7265625,6.45214896 6.6894535,6.54101525 6.61523438,6.61523438 C6.54101525,6.68554723 6.4511724,6.72070313 6.34570312,6.72070313 C6.24804639,6.72070313 6.16015664,6.68554723 6.08203125,6.61523438 L6.08203125,6.61523438 Z M6.08203125,11.3847656 C6.15625037,11.3105465 6.24511667,11.2734375 6.34863281,11.2734375 C6.45214896,11.2734375 6.54101525,11.3105465 6.61523438,11.3847656 C6.6894535,11.4589847 6.7265625,11.547851 6.7265625,11.6513672 C6.7265625,11.7548833 6.6894535,11.8437496 6.61523438,11.9179688 L5.28515625,13.2421875 C5.21093713,13.3164066 5.12304738,13.3535156 5.02148438,13.3535156 C4.92773391,13.3535156 4.83984416,13.3164066 4.7578125,13.2421875 C4.68359338,13.1679684 4.64648438,13.0800786 4.64648438,12.9785156 C4.64648438,12.8769526 4.68359338,12.7890629 4.7578125,12.7148438 L6.08203125,11.3847656 Z M11.6542969,6.72070313 C11.5488276,6.72070313 11.4589847,6.68554723 11.3847656,6.61523438 C11.3105465,6.54101525 11.2734375,6.45214896 11.2734375,6.34863281 C11.2734375,6.24511667 11.3105465,6.15625037 11.3847656,6.08203125 L12.7148438,4.7578125 C12.7890629,4.68359338 12.8769526,4.64648438 12.9785156,4.64648438 C13.0800786,4.64648438 13.1679684,4.68359338 13.2421875,4.7578125 C13.3164066,4.83203162 13.3535156,4.91992137 13.3535156,5.02148438 C13.3535156,5.12304738 13.3164066,5.21093713 13.2421875,5.28515625 L11.9179688,6.61523438 C11.8398434,6.68554723 11.7519536,6.72070313 11.6542969,6.72070313 L11.6542969,6.72070313 Z" id="sun-copy" fill="#605100"></path>
                        </g>
                    </g>
                </g>
            </g>
        </g>
    </g>
</svg>