<?xml version="1.0" encoding="UTF-8"?>
<svg width="62px" height="62px" viewBox="0 0 62 62" version="1.1" xmlns="http://www.w3.org/2000/svg" xmlns:xlink="http://www.w3.org/1999/xlink">
    <!-- Generator: Sketch 42 (36781) - http://www.bohemiancoding.com/sketch -->
    <title>Left</title>
    <desc>Created with Sketch.</desc>
    <defs></defs>
    <g id="Desktop" stroke="none" stroke-width="1" fill="none" fill-rule="evenodd">
        <g id="Startpage-generic-v1" transform="translate(-40.000000, -1905.000000)">
            <g id="User-stories" transform="translate(0.000000, 1616.000000)">
                <g id="Arrows" transform="translate(41.000000, 290.000000)">
                    <g id="Left">
                        <circle id="Oval-2" stroke="#FFFFFF" stroke-width="2" cx="30" cy="30" r="30"></circle>
                        <path d="M21.0267857,44.7619048 C20.8680548,44.7619048 20.7366077,44.7098219 20.6324405,44.6056548 C20.5282733,44.5014876 20.4761905,44.3700405 20.4761905,44.2113095 C20.4761905,44.0823406 20.5257932,43.9583339 20.625,43.8392857 L34.4196429,29.5238095 L20.625,15.2083333 C20.5257932,15.0892851 20.4761905,14.9603182 20.4761905,14.8214286 C20.4761905,14.6726183 20.5282733,14.5461315 20.6324405,14.4419643 C20.7366077,14.3377971 20.8680548,14.2857143 21.0267857,14.2857143 C21.175596,14.2857143 21.3045629,14.3402772 21.4136905,14.4494048 L35.5654762,29.1517857 C35.664683,29.2509926 35.7142857,29.3749993 35.7142857,29.5238095 C35.7142857,29.6726198 35.664683,29.7966265 35.5654762,29.8958333 L21.4136905,44.5982143 C21.3045629,44.7073418 21.175596,44.7619048 21.0267857,44.7619048 Z" id="right" fill="#FFFFFF" transform="translate(28.095238, 29.523810) scale(-1, 1) translate(-28.095238, -29.523810) "></path>
                    </g>
                </g>
            </g>
        </g>
    </g>
</svg>