<?xml version="1.0" encoding="UTF-8"?>
<svg width="13px" height="13px" viewBox="0 0 13 13" version="1.1" xmlns="http://www.w3.org/2000/svg" xmlns:xlink="http://www.w3.org/1999/xlink">
    <!-- Generator: Sketch 42 (36781) - http://www.bohemiancoding.com/sketch -->
    <title>Star</title>
    <desc>Created with Sketch.</desc>
    <defs></defs>
    <g id="Desktop" stroke="none" stroke-width="1" fill="none" fill-rule="evenodd">
        <g id="Startpage-generic-v1" transform="translate(-127.000000, -612.000000)" fill="#FFFFFF">
            <g id="Top">
                <g id="USP" transform="translate(40.000000, 589.163515)">
                    <g id="Quality" transform="translate(86.450939, 18.908583)">
                        <g id="Group-12" transform="translate(1.000000, 0.000000)">
                            <path d="M11.9282822,8.92770378 L9.01330247,11.8288026 L9.74898782,15.7015614 C9.76749572,15.8126088 9.73048048,15.8958931 9.63794098,15.9514168 C9.60092518,15.9791786 9.55465612,15.9930593 9.49913242,15.9930593 C9.44360872,15.9930593 9.39733966,15.9791786 9.36032386,15.9514168 L6.00115678,13.7860033 L2.6419897,15.9514168 C2.5494502,16.0161944 2.45691209,16.0161944 2.36437259,15.9514168 C2.27183309,15.8958931 2.23481784,15.8126088 2.25332574,15.7015614 L2.98901109,11.8288026 L0.0740313949,8.92770378 C-2.05642107e-07,8.85367217 -0.0185078282,8.76113406 0.0185079721,8.65008666 C0.0647777225,8.54829321 0.143435118,8.49739725 0.254482519,8.49739725 L4.08559869,8.49739725 L5.76518223,4.16657027 C5.81145198,4.05552287 5.89010938,4 6.00115678,4 C6.11220418,4 6.19086158,4.05552287 6.23713133,4.16657027 L7.91671487,8.49739725 L11.747831,8.49739725 C11.8588784,8.49739725 11.9375358,8.54829321 11.9838056,8.65008666 C12.0208214,8.76113406 12.0023138,8.85367217 11.9282822,8.92770378 Z" id="Star"></path>
                        </g>
                    </g>
                </g>
            </g>
        </g>
    </g>
</svg>