<?xml version="1.0" encoding="UTF-8"?>
<svg width="41px" height="41px" viewBox="0 0 41 41" version="1.1" xmlns="http://www.w3.org/2000/svg" xmlns:xlink="http://www.w3.org/1999/xlink">
    <!-- Generator: Sketch 42 (36781) - http://www.bohemiancoding.com/sketch -->
    <title>play</title>
    <desc>Created with Sketch.</desc>
    <defs></defs>
    <g id="Desktop" stroke="none" stroke-width="1" fill="none" fill-rule="evenodd">
        <g id="Startpage-generic-v1" transform="translate(-160.000000, -1393.000000)" fill="#E3232D">
            <g id="Playlist" transform="translate(160.000000, 1393.000000)">
                <path d="M20.5,0.5 C23.2083469,0.5 25.7962116,1.02733848 28.2636719,2.08203125 C30.7311321,3.13672402 32.8600171,4.55923584 34.6503906,6.34960938 C36.4407642,8.13998291 37.863276,10.2688679 38.9179688,12.7363281 C39.9726615,15.2037884 40.5,17.7916531 40.5,20.5 C40.5,23.2083469 39.9726615,25.7962116 38.9179688,28.2636719 C37.863276,30.7311321 36.4407642,32.8600171 34.6503906,34.6503906 C32.8600171,36.4407642 30.7311321,37.863276 28.2636719,38.9179688 C25.7962116,39.9726615 23.2083469,40.5 20.5,40.5 C17.7916531,40.5 15.2037884,39.9726615 12.7363281,38.9179688 C10.2688679,37.863276 8.13998291,36.4407642 6.34960938,34.6503906 C4.55923584,32.8600171 3.13672402,30.7311321 2.08203125,28.2636719 C1.02733848,25.7962116 0.5,23.2083469 0.5,20.5 C0.5,17.7916531 1.02733848,15.2037884 2.08203125,12.7363281 C3.13672402,10.2688679 4.55923584,8.13998291 6.34960938,6.34960938 C8.13998291,4.55923584 10.2688679,3.13672402 12.7363281,2.08203125 C15.2037884,1.02733848 17.7916531,0.5 20.5,0.5 Z M16.2226562,27.5 L28.2226562,20 L16.2226562,12.5 L16.2226562,27.5 Z" id="play"></path>
            </g>
        </g>
    </g>
</svg>