<?xml version="1.0" encoding="UTF-8"?>
<svg width="8px" height="6px" viewBox="0 0 8 6" version="1.1" xmlns="http://www.w3.org/2000/svg" xmlns:xlink="http://www.w3.org/1999/xlink">
    <!-- Generator: Sketch 42 (36781) - http://www.bohemiancoding.com/sketch -->
    <title>check</title>
    <desc>Created with Sketch.</desc>
    <defs></defs>
    <g id="Desktop" stroke="none" stroke-width="1" fill="none" fill-rule="evenodd">
        <g id="Desktop-rate-v2" transform="translate(-171.000000, -484.000000)" fill="#E3232D">
            <g id="Group-22" transform="translate(80.000000, 213.000000)">
                <g id="Group-11" transform="translate(91.000000, 259.000000)">
                    <path d="M6.03404792,12.0718789 C6.08196745,12.0239594 6.13871342,12 6.20428752,12 C6.26986161,12 6.32660758,12.0239594 6.37452711,12.0718789 L7.4035309,13.1008827 C7.45145043,13.1488023 7.47540984,13.2055482 7.47540984,13.2711223 C7.47540984,13.3366964 7.45145043,13.3934424 7.4035309,13.4413619 L4.01008827,16.8991173 L2.98108449,17.9281211 C2.93316496,17.9760406 2.87641899,18 2.81084489,18 C2.74527079,18 2.68852483,17.9760406 2.6406053,17.9281211 L0.0718789407,15.3593947 C0.0239594073,15.3114752 0,15.2540987 0,15.1872636 C0,15.1204284 0.0239594073,15.0630519 0.0718789407,15.0151324 L1.10088272,13.9899117 C1.14880226,13.9419922 1.20554822,13.9180328 1.27112232,13.9180328 C1.33669642,13.9180328 1.39344238,13.9419922 1.44136192,13.9899117 L2.81084489,15.3593947 L6.03404792,12.0718789 Z" id="check"></path>
                </g>
            </g>
        </g>
    </g>
</svg>