<?xml version="1.0" encoding="UTF-8"?>
<svg width="17px" height="20px" viewBox="0 0 17 20" version="1.1" xmlns="http://www.w3.org/2000/svg" xmlns:xlink="http://www.w3.org/1999/xlink">
    <!-- Generator: Sketch 42 (36781) - http://www.bohemiancoding.com/sketch -->
    <title>Imported Layers</title>
    <desc>Created with Sketch.</desc>
    <defs></defs>
    <g id="Desktop" stroke="none" stroke-width="1" fill="none" fill-rule="evenodd">
        <g id="Startpage-generic-v1" transform="translate(-528.000000, -3744.000000)" fill="#9B9B9B">
            <g id="Group-27" transform="translate(38.000000, 3735.000000)">
                <g id="Group-26" transform="translate(433.000000, 9.000000)">
                    <path d="M69.6347755,4.46343537 C71.9510204,4.46343537 73.4321633,6.70452381 73.4321633,6.70452381 C73.4321633,6.70452381 71.1727347,7.93061224 71.1727347,10.5933844 C71.1727347,13.7537925 74.011102,14.6731122 74.011102,14.6731122 C74.011102,14.6731122 71.7707755,19.9887925 69.2551837,19.9887925 C67.8406531,19.9887925 67.7461224,19.175017 65.8662857,19.175017 C64.2337959,19.175017 63.6832653,19.9887925 62.4396735,19.9887925 C60.0661224,19.9887925 57,14.8072619 57,10.5933844 C57,6.2162585 60.1043265,4.46343537 62.0502857,4.46343537 C63.7591837,4.46343537 64.4708571,5.46906463 65.8471837,5.46906463 C67.005551,5.46906463 67.9170612,4.46343537 69.6347755,4.46343537 L69.6347755,4.46343537 Z M69.2365714,0 C69.5779592,2.14540816 67.632,4.79880952 65.306449,4.7125 C64.9645714,1.98265306 67.4708571,0.144013605 69.2365714,0 L69.2365714,0 Z" id="Imported-Layers"></path>
                </g>
            </g>
        </g>
    </g>
</svg>