<!-- Generated by IcoMoon.io -->
<svg version="1.1" xmlns="http://www.w3.org/2000/svg" width="32" height="32" viewBox="0 0 32 32">
<title>activist-help</title>
<path d="M16 30.933c8.247 0 14.933-6.686 14.933-14.933s-6.686-14.933-14.933-14.933c-8.247 0-14.933 6.686-14.933 14.933s6.686 14.933 14.933 14.933zM16 29.511c-7.462 0-13.511-6.049-13.511-13.511s6.049-13.511 13.511-13.511c7.462 0 13.511 6.049 13.511 13.511s-6.049 13.511-13.511 13.511z"></path>
<path d="M18.847 17.001c0 0.465-0.073 0.889-0.219 1.274s-0.345 0.71-0.597 0.976c-0.159 0.173-0.402 0.348-0.727 0.528s-0.767 0.269-1.324 0.269c-0.504 0-0.926-0.083-1.264-0.249s-0.607-0.348-0.806-0.548c-0.159-0.159-0.332-0.405-0.518-0.737s-0.279-0.77-0.279-1.314c0-0.704 0.169-1.241 0.508-1.613s0.727-0.657 1.165-0.856c0.345-0.159 0.657-0.272 0.936-0.338s0.524-0.139 0.737-0.219c0.292-0.106 0.524-0.232 0.697-0.378s0.302-0.299 0.388-0.458c0.086-0.159 0.139-0.319 0.159-0.478s0.030-0.305 0.030-0.438c0-0.199-0.030-0.428-0.090-0.687s-0.202-0.494-0.428-0.707c-0.106-0.106-0.259-0.202-0.458-0.289s-0.451-0.129-0.757-0.129c-0.226 0-0.451 0.033-0.677 0.1s-0.418 0.173-0.577 0.319c-0.186 0.173-0.319 0.382-0.398 0.627s-0.119 0.481-0.119 0.707c0 0.133 0.010 0.272 0.030 0.418s0.050 0.285 0.090 0.418h-1.473c-0.053-0.252-0.080-0.544-0.080-0.876 0-0.319 0.046-0.67 0.139-1.055s0.299-0.75 0.617-1.095c0.239-0.265 0.554-0.485 0.946-0.657s0.886-0.259 1.483-0.259c0.438 0 0.856 0.060 1.254 0.179s0.763 0.345 1.095 0.677c0.212 0.212 0.412 0.504 0.597 0.876s0.279 0.863 0.279 1.473c0 0.358-0.046 0.697-0.139 1.015s-0.272 0.631-0.538 0.936c-0.212 0.239-0.445 0.438-0.697 0.597s-0.531 0.292-0.836 0.398c-0.226 0.080-0.461 0.156-0.707 0.229s-0.488 0.163-0.727 0.269c-0.080 0.040-0.173 0.090-0.279 0.149s-0.212 0.143-0.319 0.249c-0.106 0.106-0.196 0.239-0.269 0.398s-0.11 0.358-0.11 0.597c0 0.265 0.040 0.478 0.119 0.637s0.173 0.292 0.279 0.398c0.093 0.093 0.219 0.176 0.378 0.249s0.358 0.11 0.597 0.11c0.411 0 0.737-0.119 0.976-0.358 0.146-0.146 0.262-0.345 0.348-0.597s0.129-0.498 0.129-0.737h1.434zM15.004 21.999c0-0.265 0.1-0.498 0.299-0.697s0.431-0.299 0.697-0.299c0.265 0 0.498 0.1 0.697 0.299s0.299 0.431 0.299 0.697c0 0.265-0.1 0.498-0.299 0.697s-0.431 0.299-0.697 0.299c-0.265 0-0.498-0.1-0.697-0.299s-0.299-0.431-0.299-0.697z"></path>
</svg>
