<!-- Generated by IcoMoon.io -->
<svg version="1.1" xmlns="http://www.w3.org/2000/svg" width="25" height="32" viewBox="0 0 25 32">
<title>android</title>
<path d="M8.802 8.621q0.286 0 0.491-0.205t0.205-0.491-0.205-0.491-0.491-0.205-0.482 0.205-0.197 0.491 0.197 0.491 0.482 0.205zM16.341 8.621q0.286 0 0.482-0.205t0.197-0.491-0.197-0.491-0.482-0.205-0.491 0.205-0.205 0.491 0.205 0.491 0.491 0.205zM1.834 11.909q0.75 0 1.286 0.536t0.536 1.286v7.683q0 0.768-0.527 1.304t-1.295 0.536-1.304-0.536-0.536-1.304v-7.683q0-0.75 0.536-1.286t1.304-0.536zM20.772 12.248v11.899q0 0.822-0.572 1.394t-1.376 0.572h-1.34v4.056q0 0.768-0.536 1.304t-1.304 0.536-1.304-0.536-0.536-1.304v-4.056h-2.466v4.056q0 0.768-0.536 1.304t-1.304 0.536q-0.75 0-1.286-0.536t-0.536-1.304l-0.018-4.056h-1.322q-0.822 0-1.394-0.572t-0.572-1.394v-11.899h16.402zM16.627 5.012q1.912 0.983 3.055 2.743t1.143 3.85h-16.527q0-2.090 1.143-3.85t3.073-2.743l-1.269-2.341q-0.125-0.232 0.089-0.357 0.232-0.107 0.357 0.107l1.286 2.358q1.697-0.75 3.591-0.75t3.591 0.75l1.286-2.358q0.125-0.214 0.357-0.107 0.214 0.125 0.089 0.357zM25.15 13.731v7.683q0 0.768-0.536 1.304t-1.304 0.536q-0.75 0-1.286-0.536t-0.536-1.304v-7.683q0-0.768 0.536-1.295t1.286-0.527q0.768 0 1.304 0.527t0.536 1.295z"></path>
</svg>
