<!-- Generated by IcoMoon.io -->
<svg version="1.1" xmlns="http://www.w3.org/2000/svg" width="32" height="32" viewBox="0 0 32 32">
<title>app</title>
<path d="M23.499 0.937c0.194 0 0.388 0.194 0.388 0.388v29.285c0 0.194-0.194 0.388-0.388 0.388h-14.998c-0.194 0-0.388-0.194-0.388-0.388v-29.285c0-0.194 0.194-0.388 0.388-0.388h14.998zM23.499-0.032h-14.998c-0.776 0-1.358 0.646-1.358 1.358v29.285c0 0.776 0.646 1.358 1.358 1.358h15.063c0.776 0 1.358-0.646 1.358-1.358v-29.285c0-0.711-0.646-1.358-1.422-1.358v0z"></path>
<path d="M16 30.352c-0.905 0-1.681-0.776-1.681-1.681s0.776-1.681 1.681-1.681c0.905 0 1.681 0.776 1.681 1.681s-0.776 1.681-1.681 1.681zM16 27.96c-0.388 0-0.711 0.323-0.711 0.711s0.323 0.711 0.711 0.711 0.711-0.323 0.711-0.711-0.323-0.711-0.711-0.711z"></path>
<path d="M14.966 16.194c-0.323 0.259-0.453 0.582-0.453 1.034 0 0.388 0.129 0.711 0.453 0.97 0.259 0.259 0.711 0.388 1.228 0.388h1.422v-2.715h-1.228c-0.711 0-1.164 0.129-1.422 0.323z"></path>
<path d="M8.566 5.075v20.752h14.804v-20.752h-14.804zM19.232 19.879h-3.232c-1.099 0-1.939-0.259-2.457-0.776s-0.776-1.164-0.776-1.939c0-1.164 0.582-2.004 1.681-2.392l-1.487-3.749h1.745l1.293 3.426h1.552v-3.426h1.681v8.857z"></path>
</svg>
