<!-- Generated by IcoMoon.io -->
<svg version="1.1" xmlns="http://www.w3.org/2000/svg" width="32" height="32" viewBox="0 0 32 32">
<title>apple</title>
<path d="M24.714 17c-0.040-4.043 3.297-5.982 3.446-6.078-1.875-2.744-4.796-3.12-5.837-3.163-2.486-0.252-4.851 1.464-6.113 1.464-1.258 0-3.205-1.426-5.267-1.389-2.71 0.040-5.208 1.576-6.603 4.002-2.815 4.885-0.721 12.122 2.023 16.084 1.341 1.939 2.94 4.118 5.039 4.040 2.021-0.081 2.786-1.308 5.23-1.308s3.131 1.308 5.27 1.268c2.175-0.040 3.553-1.977 4.885-3.922 1.54-2.25 2.174-4.428 2.211-4.54-0.048-0.022-4.242-1.628-4.284-6.458zM20.694 5.136c1.114-1.352 1.866-3.227 1.661-5.098-1.605 0.065-3.55 1.069-4.702 2.418-1.033 1.196-1.938 3.106-1.695 4.939 1.792 0.14 3.62-0.91 4.736-2.259z"></path>
</svg>
