<!-- Generated by IcoMoon.io -->
<svg version="1.1" xmlns="http://www.w3.org/2000/svg" width="46" height="32" viewBox="0 0 46 32">
<title>boss</title>
<path d="M17.132 0.51l-6.914 0.377c-0.051 0-5.231 0.071-6.812 6.221-1.489 5.797-3.381 19.187-3.401 19.319l1.020 0.143c0-0.133 1.902-13.466 3.381-19.207 1.382-5.364 5.644-5.451 5.853-5.456l6.149-0.337 1.050 6.792 1.127 0.719-0.806 1.055 0.785 8.102 1.020-0.097-0.744-7.704 1.234-1.621-1.677-1.066zM29.058 2.039l-0.872 5.726-1.677 1.066 1.234 1.621-0.724 7.704 1.020 0.097 0.785-8.102-0.806-1.055 1.127-0.719 0.959-6.282 5.92 0.321c0.046 0 4.441 0.061 5.828 5.456 1.479 5.741 3.36 19.075 3.38 19.207l1.020-0.143c0-0.133-1.912-13.522-3.401-19.319-1.576-6.119-6.715-6.221-6.786-6.221v0l-6.945-0.377zM36.196 12.237v5.165c-0.808 0.457-1.775 0.726-2.804 0.726s-1.996-0.269-2.833-0.741l0.029-5.15h5.609zM37.216 11.217h-7.648v6.914s2.825 1.020 3.824 1.020 3.824-1.020 3.824-1.020v-6.914zM24.632 3.957c1.565-1.112 2.549-3.447 2.549-3.447-0.926-0.247-2.51-0.468-4.138-0.509-1.244 0.001-2.703 0.188-4.099 0.536s0.992 2.309 2.496 3.42l-2.549 24.265-0.031 0.265 4.079 3.513 4.283-3.503zM20.553 1.249c0.638-0.126 1.544-0.219 2.469-0.229 0.783-0 1.774 0.087 2.739 0.254-0.736 1.005-1.72 2.239-2.73 2.239s-1.922-1.229-2.488-2.264zM19.931 28.043l2.473-23.454h1.264l2.473 23.454-3.192 2.616z"></path>
</svg>
