<!-- Generated by IcoMoon.io -->
<svg version="1.1" xmlns="http://www.w3.org/2000/svg" width="36" height="32" viewBox="0 0 36 32">
<title>calendar</title>
<path d="M1.836 4.57c-0.437 0-0.792 0.355-0.792 0.792v24.502c0 0.437 0.355 0.792 0.792 0.792h32.155c0.437 0 0.792-0.355 0.792-0.792v-24.502c0-0.437-0.355-0.792-0.792-0.792h-32.155zM33.991 31.701h-32.155c-1.012 0-1.836-0.824-1.836-1.836v-24.502c0-1.012 0.824-1.836 1.836-1.836h32.155c1.012 0 1.835 0.824 1.835 1.836v24.502c0 1.012-0.823 1.836-1.835 1.836v0z"></path>
<path d="M11.214 12.033c-0.739 0-1.339 0.601-1.339 1.339s0.6 1.34 1.339 1.34 1.34-0.601 1.34-1.34c0-0.738-0.601-1.339-1.34-1.339zM11.214 15.756c-1.314 0-2.383-1.069-2.383-2.383s1.069-2.383 2.383-2.383 2.383 1.069 2.383 2.383c0 1.314-1.069 2.383-2.383 2.383z"></path>
<path d="M17.913 12.033c-0.739 0-1.339 0.601-1.339 1.339s0.6 1.34 1.339 1.34 1.339-0.601 1.339-1.34c0-0.738-0.6-1.339-1.339-1.339zM17.913 15.756c-1.314 0-2.383-1.069-2.383-2.383s1.069-2.383 2.383-2.383 2.383 1.069 2.383 2.383c0 1.314-1.069 2.383-2.383 2.383z"></path>
<path d="M24.612 12.033c-0.739 0-1.34 0.601-1.34 1.339s0.601 1.34 1.34 1.34 1.339-0.601 1.339-1.34c0-0.738-0.6-1.339-1.339-1.339zM24.612 15.756c-1.314 0-2.383-1.069-2.383-2.383s1.069-2.383 2.383-2.383 2.383 1.069 2.383 2.383c0 1.314-1.069 2.383-2.383 2.383z"></path>
<path d="M11.214 18.014c-0.739 0-1.339 0.601-1.339 1.339s0.6 1.34 1.339 1.34 1.34-0.601 1.34-1.34c0-0.738-0.601-1.339-1.34-1.339zM11.214 21.736c-1.314 0-2.383-1.069-2.383-2.383s1.069-2.383 2.383-2.383 2.383 1.069 2.383 2.383c0 1.314-1.069 2.383-2.383 2.383z"></path>
<path d="M17.913 18.014c-0.739 0-1.339 0.601-1.339 1.339s0.6 1.34 1.339 1.34 1.339-0.601 1.339-1.34c0-0.738-0.6-1.339-1.339-1.339zM17.913 21.736c-1.314 0-2.383-1.069-2.383-2.383s1.069-2.383 2.383-2.383 2.383 1.069 2.383 2.383c0 1.314-1.069 2.383-2.383 2.383z"></path>
<path d="M24.612 18.014c-0.739 0-1.34 0.601-1.34 1.339s0.601 1.34 1.34 1.34 1.339-0.601 1.339-1.34c0-0.738-0.6-1.339-1.339-1.339zM24.612 21.736c-1.314 0-2.383-1.069-2.383-2.383s1.069-2.383 2.383-2.383 2.383 1.069 2.383 2.383c0 1.314-1.069 2.383-2.383 2.383z"></path>
<path d="M11.214 24.345c-0.739 0-1.339 0.601-1.339 1.339s0.6 1.34 1.339 1.34 1.34-0.601 1.34-1.34c0-0.738-0.601-1.339-1.34-1.339zM11.214 28.068c-1.314 0-2.383-1.069-2.383-2.383s1.069-2.383 2.383-2.383 2.383 1.069 2.383 2.383c0 1.314-1.069 2.383-2.383 2.383z"></path>
<path d="M17.913 24.345c-0.739 0-1.339 0.601-1.339 1.339s0.6 1.34 1.339 1.34 1.339-0.601 1.339-1.34c0-0.738-0.6-1.339-1.339-1.339zM17.913 28.068c-1.314 0-2.383-1.069-2.383-2.383s1.069-2.383 2.383-2.383 2.383 1.069 2.383 2.383c0 1.314-1.069 2.383-2.383 2.383z"></path>
<path d="M24.612 24.345c-0.739 0-1.34 0.601-1.34 1.339s0.601 1.34 1.34 1.34 1.339-0.601 1.339-1.34c0-0.738-0.6-1.339-1.339-1.339zM24.612 28.068c-1.314 0-2.383-1.069-2.383-2.383s1.069-2.383 2.383-2.383 2.383 1.069 2.383 2.383c0 1.314-1.069 2.383-2.383 2.383z"></path>
<path d="M24.87 8.271c-0.288 0-0.522-0.234-0.522-0.522v-7.228c0-0.288 0.234-0.522 0.522-0.522s0.522 0.234 0.522 0.522v7.228c0 0.288-0.234 0.522-0.522 0.522z"></path>
<path d="M17.913 8.271c-0.288 0-0.522-0.234-0.522-0.522v-7.228c0-0.288 0.234-0.522 0.522-0.522s0.522 0.234 0.522 0.522v7.228c0 0.288-0.234 0.522-0.522 0.522z"></path>
<path d="M10.957 8.271c-0.288 0-0.522-0.234-0.522-0.522v-7.228c0-0.288 0.234-0.522 0.522-0.522s0.522 0.234 0.522 0.522v7.228c0 0.288-0.234 0.522-0.522 0.522z"></path>
</svg>
