<!-- Generated by IcoMoon.io -->
<svg version="1.1" xmlns="http://www.w3.org/2000/svg" width="50" height="32" viewBox="0 0 50 32">
<title>call-any-phone</title>
<path d="M14.556 0.73h-11.378c-1.729 0-3.139 1.432-3.139 3.179v24.539c0 1.748 1.409 3.179 3.139 3.179h11.378c1.73 0 3.139-1.431 3.139-3.179v-24.539c0-1.747-1.409-3.179-3.139-3.179v0zM14.556 1.834c1.116 0 2.035 0.934 2.035 2.076v24.539c0 1.142-0.919 2.075-2.035 2.075h-11.378c-1.116 0-2.035-0.933-2.035-2.075v-24.539c0-1.142 0.919-2.076 2.035-2.076h11.378zM9.225 29.421c0.79 0 1.43-0.643 1.43-1.435s-0.64-1.435-1.43-1.435c-0.79 0-1.43 0.643-1.43 1.435s0.64 1.435 1.43 1.435v0zM9.225 28.539c-0.302 0-0.547-0.247-0.547-0.553s0.246-0.553 0.547-0.553c0.302 0 0.547 0.247 0.547 0.553s-0.246 0.553-0.547 0.553v0zM0.601 5.911h16.552l-0.552-0.552v19.31l0.552-0.552h-16.552l0.552 0.552v-19.31l-0.552 0.552zM0.601 4.807h-0.552v20.414h17.655v-20.414h-17.103zM40.020 10.974h-6.147l-8.371 9.927v7.729h23.172v-7.729l-8.399-9.926h-0.256zM40.020 12.077l-0.421-0.195 8.103 9.576-0.131-0.356v6.975l0.552-0.552h-22.069l0.552 0.552v-6.975l-0.13 0.356 8.076-9.576-0.422 0.196h5.89zM27.586 28.525v2.228h1.103v-2.228h-1.103zM44.69 28.525v2.228h1.103v-2.228h-1.103zM33.508 10.306v1.219h0.883v-1.219h-0.883zM39.687 10.306v1.219h0.883v-1.219h-0.883zM37.175 24.892c2.474 0 4.478-2.014 4.478-4.498s-2.004-4.498-4.478-4.498c-2.474 0-4.478 2.014-4.478 4.498s2.004 4.498 4.478 4.498v0zM37.175 23.789c-1.863 0-3.374-1.519-3.374-3.394s1.511-3.394 3.374-3.394c1.863 0 3.374 1.519 3.374 3.394s-1.511 3.394-3.374 3.394v0zM37.175 22.577c1.202 0 2.175-0.978 2.175-2.183s-0.973-2.183-2.175-2.183c-1.202 0-2.175 0.978-2.175 2.183s0.973 2.183 2.175 2.183v0zM37.175 21.474c-0.591 0-1.071-0.483-1.071-1.080s0.48-1.080 1.071-1.080c0.591 0 1.071 0.483 1.071 1.080s-0.48 1.080-1.071 1.080v0zM49.723 4.649l-0-0.001c-1.017-2.989-5.153-4.329-12.553-4.259-7.389-0.070-11.525 1.271-12.548 4.274l0.014-0.038c-0.28 0.818-0.361 2.537-0.306 3.983 0.020 0.554 0.481 0.986 1.037 0.992l7.059 0.034c0.561 0.003 1.029-0.431 1.051-0.992 0.001-0.075 0.001-0.075 0.006-0.323 0.004-0.233 0.008-0.465 0.012-0.683 0.003-0.134 0.003-0.134 0.005-0.266 0.004-0.209 0.008-0.379 0.011-0.501 0.002-0.066 0.003-0.118 0.005-0.153-0.005 0.137 0.002 0.013-0.025 0.093 0.1-0.295 1.754-0.666 3.684-0.668 1.934-0.001 3.584 0.368 3.686 0.667-0.027-0.079-0.020 0.043-0.025-0.093 0.001 0.035 0.003 0.086 0.005 0.152 0.003 0.122 0.007 0.29 0.011 0.498 0.003 0.134 0.003 0.134 0.005 0.27 0.004 0.217 0.008 0.45 0.012 0.683 0.004 0.248 0.004 0.248 0.005 0.31 0.023 0.573 0.49 1.008 1.051 1.005l7.056-0.034c0.558-0.005 1.020-0.438 1.040-0.993 0.055-1.445-0.026-3.164-0.291-3.943l-0.005-0.015zM48.684 5.019c0.206 0.604 0.283 2.24 0.233 3.547 0.002-0.043 0.030-0.069 0.055-0.070l-7.054 0.034c0.026-0 0.055 0.027 0.057 0.068-0.001-0.049-0.001-0.049-0.005-0.298-0.004-0.233-0.008-0.467-0.012-0.684-0.003-0.137-0.003-0.137-0.005-0.272-0.004-0.21-0.008-0.38-0.011-0.504-0.002-0.069-0.003-0.124-0.005-0.164-0.001-0.030-0.001-0.030-0.003-0.056 0.002-0.014 0.002-0.014-0.031-0.166-0.642-1.889-8.818-1.883-9.458 0.002-0.032 0.152-0.032 0.152-0.030 0.165-0.001 0.026-0.001 0.026-0.002 0.056-0.001 0.040-0.003 0.095-0.005 0.165-0.003 0.125-0.007 0.297-0.011 0.508-0.003 0.132-0.003 0.132-0.005 0.267-0.004 0.218-0.008 0.451-0.012 0.684-0.004 0.249-0.004 0.249-0.005 0.311 0.002-0.054 0.031-0.081 0.058-0.081l-7.057-0.034c0.028 0 0.056 0.027 0.058 0.071-0.050-1.309 0.027-2.944 0.233-3.549l-0.014 0.038c0.826-2.42 4.56-3.631 11.518-3.565 6.968-0.066 10.702 1.145 11.513 3.527l0.006 0.016-0.005-0.015z"></path>
</svg>
