<!-- Generated by IcoMoon.io -->
<svg version="1.1" xmlns="http://www.w3.org/2000/svg" width="32" height="32" viewBox="0 0 32 32">
<title>cancel-circle</title>
<path d="M15.997 0.956c8.296 0 15.021 6.725 15.021 15.021s-6.725 15.021-15.021 15.021c-8.296 0-15.021-6.725-15.021-15.021 0.011-8.292 6.73-15.010 15.020-15.021zM15.997-0.019c-8.835 0-15.997 7.162-15.997 15.997s7.162 15.997 15.997 15.997c8.835 0 15.997-7.162 15.997-15.997s-7.162-15.997-15.997-15.997z"></path>
<path d="M10.151 22.864c-0.355-0.005-0.641-0.294-0.641-0.65 0-0.174 0.068-0.332 0.18-0.449l12.427-12.427c0.113-0.097 0.261-0.156 0.423-0.156 0.359 0 0.65 0.291 0.65 0.65 0 0.162-0.059 0.31-0.157 0.424l-12.42 12.419c-0.117 0.117-0.279 0.189-0.458 0.189-0.001 0-0.003 0-0.004 0z"></path>
<path d="M22.565 23.325c-0.001 0-0.002 0-0.004 0-0.179 0-0.34-0.072-0.458-0.189l-12.414-12.427c-0.097-0.113-0.156-0.261-0.156-0.423 0-0.359 0.291-0.65 0.65-0.65 0.162 0 0.31 0.059 0.424 0.157l12.419 12.42c0.119 0.118 0.192 0.281 0.192 0.462 0 0.359-0.291 0.65-0.65 0.65-0.001 0-0.003 0-0.004 0z"></path>
</svg>
