<!-- Generated by IcoMoon.io -->
<svg version="1.1" xmlns="http://www.w3.org/2000/svg" width="41" height="32" viewBox="0 0 41 32">
<title>cheap</title>
<path d="M1.375 17.159v0l9.598 11.438c0.002 0.002-0.001 0.002 0.001 0.001l18.674-15.669c-0.026 0.022 0.011-0.060 0.011-0.028l-0.267-9.826c0.005 0.201 0.119 0.336 0.316 0.377l-9.631-1.969c0.030 0.006-0.054 0.027-0.029 0.006l-18.674 15.669c-0.002 0.001-0.001-0.002 0.001 0.001v0zM0.558 17.845c-0.379-0.452-0.324-1.122 0.131-1.503l18.674-15.669c0.224-0.188 0.639-0.293 0.929-0.234l9.631 1.969c0.288 0.059 0.529 0.344 0.537 0.639l0.267 9.826c0.008 0.294-0.17 0.687-0.392 0.874l-18.674 15.669c-0.451 0.379-1.122 0.322-1.503-0.132l-9.598-11.438zM25.089 9.828c0.903-0.757 1.020-2.103 0.263-3.005s-2.103-1.020-3.006-0.263c-0.903 0.757-1.020 2.103-0.263 3.005s2.103 1.020 3.006 0.263v0zM24.404 9.011c-0.451 0.379-1.124 0.32-1.503-0.131s-0.32-1.124 0.131-1.503c0.451-0.379 1.124-0.32 1.503 0.131s0.32 1.124-0.131 1.503v0zM14.438 13.378c-0.078-0.037-0.159-0.068-0.245-0.093s-0.182-0.040-0.288-0.044c-0.262-0.003-0.513 0.096-0.753 0.298-0.147 0.123-0.251 0.248-0.313 0.374s-0.097 0.244-0.107 0.354c-0.011 0.12 0.001 0.222 0.034 0.306s0.084 0.166 0.152 0.248c0.078 0.093 0.164 0.162 0.258 0.208s0.207 0.070 0.338 0.071c0.101-0.001 0.226-0.018 0.375-0.050s0.273-0.067 0.373-0.104l0.546-0.179c0.203-0.068 0.424-0.126 0.662-0.173s0.48-0.053 0.724-0.016c0.274 0.039 0.512 0.123 0.712 0.252s0.377 0.283 0.527 0.463c0.192 0.229 0.338 0.475 0.439 0.739s0.144 0.564 0.129 0.901c-0.017 0.256-0.069 0.482-0.154 0.679s-0.201 0.38-0.347 0.549l0.692 0.825-0.605 0.507-0.672-0.801c-0.21 0.148-0.438 0.256-0.683 0.323s-0.523 0.077-0.832 0.029c-0.284-0.040-0.536-0.119-0.755-0.236s-0.417-0.265-0.594-0.442l0.674-0.872c0.114 0.136 0.243 0.246 0.388 0.329s0.285 0.141 0.424 0.173c0.193 0.042 0.37 0.037 0.531-0.014s0.312-0.137 0.454-0.256c0.131-0.11 0.232-0.227 0.303-0.352s0.112-0.275 0.123-0.451c0.016-0.18-0.003-0.338-0.057-0.474s-0.133-0.267-0.238-0.392c-0.101-0.12-0.207-0.211-0.32-0.274s-0.252-0.104-0.417-0.124c-0.17-0.015-0.316-0.009-0.437 0.019s-0.252 0.063-0.392 0.106l-0.708 0.218c-0.171 0.051-0.369 0.091-0.594 0.122s-0.422 0.039-0.593 0.024c-0.235-0.026-0.437-0.086-0.605-0.182s-0.314-0.217-0.438-0.364c-0.187-0.223-0.317-0.456-0.39-0.697s-0.098-0.477-0.078-0.707c0.015-0.17 0.063-0.354 0.143-0.552s0.204-0.39 0.372-0.577l-0.61-0.727 0.605-0.507 0.603 0.719c0.113-0.076 0.246-0.146 0.401-0.211s0.333-0.103 0.536-0.116c0.178-0.010 0.356 0.003 0.534 0.039s0.348 0.088 0.509 0.158l-0.341 0.954zM24.12 8.636c0.067-0.047 0.209-0.137 0.42-0.258 0.359-0.204 0.777-0.413 1.25-0.614 1.355-0.574 2.868-0.959 4.499-1.056 1.041-0.062 2.099-0.002 3.17 0.194 5.078 0.929 7.716 7.54 4.511 10.228-1.574 1.321-3.236 1.982-6.535 2.851-3.002 0.791-3.858 1.060-5.092 1.729-3.032 1.643-4.527 4.011-4.86 6.699-0.088 0.712-0.085 1.393-0.017 2.021 0.041 0.382 0.097 0.666 0.141 0.831l0.138 0.515 1.030-0.275-0.138-0.515c-0.006-0.023-0.019-0.079-0.036-0.163-0.029-0.147-0.055-0.317-0.075-0.508-0.060-0.55-0.062-1.149 0.015-1.775 0.292-2.359 1.594-4.422 4.309-5.893 1.128-0.611 1.949-0.869 4.856-1.635 3.444-0.907 5.218-1.613 6.949-3.066 3.961-3.324 0.892-11.016-5.005-12.095-1.156-0.212-2.3-0.276-3.425-0.209-1.761 0.105-3.391 0.52-4.852 1.139-0.513 0.217-0.968 0.444-1.362 0.669-0.241 0.137-0.41 0.245-0.503 0.31l-0.437 0.305 0.611 0.875 0.437-0.305z"></path>
</svg>
