<!-- Generated by IcoMoon.io -->
<svg version="1.1" xmlns="http://www.w3.org/2000/svg" width="32" height="32" viewBox="0 0 32 32">
<title>circle-2</title>
<path d="M16.016 1.815c7.87 0 14.272 6.403 14.272 14.272s-6.403 14.272-14.272 14.272c-7.87 0-14.272-6.403-14.272-14.272s6.403-14.272 14.272-14.272zM16.016 0.89c-8.395 0-15.197 6.802-15.197 15.197s6.802 15.197 15.197 15.197c8.395 0.006 15.197-6.802 15.197-15.197s-6.802-15.197-15.197-15.197v0z"></path>
<path d="M20.706 22.622v1.697h-10.65l6.003-6.939c0.099-0.115 0.241-0.279 0.421-0.493s0.367-0.438 0.558-0.668c0.192-0.23 0.372-0.46 0.542-0.679 0.175-0.224 0.306-0.405 0.41-0.558 0.378-0.525 0.624-0.996 0.739-1.406s0.175-0.783 0.175-1.111c0-0.941-0.301-1.707-0.903-2.309s-1.395-0.903-2.386-0.903c-1.188 0-2.101 0.487-2.742 1.456-0.164 0.246-0.29 0.525-0.383 0.843-0.093 0.312-0.142 0.673-0.159 1.111h-1.828c0.033-0.821 0.164-1.527 0.394-2.052s0.509-0.98 0.837-1.357c0.345-0.394 0.826-0.772 1.445-1.138 0.618-0.361 1.439-0.542 2.457-0.542 0.722 0 1.401 0.126 2.025 0.372s1.166 0.591 1.62 1.023c0.454 0.438 0.804 0.958 1.062 1.56s0.383 1.259 0.383 1.965c0 0.558-0.093 1.111-0.285 1.653s-0.531 1.171-1.023 1.877c-0.345 0.476-0.728 0.958-1.138 1.445s-0.783 0.908-1.111 1.286l-3.431 3.869h6.967z"></path>
</svg>
