<!-- Generated by IcoMoon.io -->
<svg version="1.1" xmlns="http://www.w3.org/2000/svg" width="32" height="32" viewBox="0 0 32 32">
<title>circle-3</title>
<path d="M16.016 1.815c7.87 0 14.272 6.403 14.272 14.272s-6.403 14.272-14.272 14.272c-7.87 0-14.272-6.403-14.272-14.272s6.403-14.272 14.272-14.272zM16.016 0.89c-8.395 0-15.197 6.802-15.197 15.197s6.802 15.197 15.197 15.197c8.395 0.006 15.197-6.802 15.197-15.197s-6.802-15.197-15.197-15.197v0z"></path>
<path d="M20.745 22.151c-0.263 0.613-0.629 1.133-1.095 1.56s-1.001 0.761-1.614 0.991c-0.613 0.23-1.275 0.345-1.987 0.345-0.432 0-0.87-0.049-1.313-0.148-0.449-0.099-0.876-0.263-1.292-0.487s-0.799-0.52-1.155-0.881c-0.356-0.361-0.64-0.81-0.859-1.341-0.131-0.296-0.224-0.602-0.274-0.881s-0.082-0.553-0.098-0.881h1.839c0.033 0.328 0.098 0.602 0.197 0.892s0.23 0.558 0.399 0.788c0.279 0.399 0.646 0.706 1.095 0.925 0.449 0.213 0.936 0.323 1.467 0.323 0.465 0 0.892-0.088 1.292-0.257s0.739-0.41 1.029-0.717c0.29-0.306 0.52-0.657 0.684-1.062s0.246-0.832 0.246-1.292c0-0.23-0.027-0.476-0.077-0.739s-0.137-0.52-0.263-0.777-0.296-0.487-0.509-0.7c-0.213-0.213-0.482-0.394-0.794-0.542-0.263-0.131-0.564-0.224-0.892-0.285-0.328-0.055-0.662-0.077-0.991-0.060v-1.691c0.328 0.033 0.662 0.016 0.991-0.049s0.629-0.164 0.892-0.296c0.131-0.066 0.279-0.159 0.432-0.285 0.159-0.126 0.306-0.285 0.449-0.487s0.263-0.432 0.361-0.706c0.099-0.274 0.148-0.602 0.148-0.98 0-0.361-0.055-0.717-0.164-1.056s-0.274-0.64-0.498-0.908c-0.224-0.263-0.514-0.476-0.87-0.635s-0.794-0.235-1.302-0.235c-0.328 0-0.69 0.055-1.067 0.164-0.383 0.109-0.739 0.367-1.067 0.783-0.164 0.213-0.306 0.471-0.421 0.766s-0.191 0.635-0.224 0.963h-1.839c0.033-0.438 0.115-0.897 0.246-1.313s0.306-0.783 0.52-1.116c0.263-0.432 0.569-0.772 0.919-1.029 0.345-0.257 0.695-0.449 1.045-0.586 0.35-0.131 0.69-0.219 1.018-0.263s0.618-0.060 0.87-0.060c0.777 0 1.461 0.126 2.047 0.372 0.586 0.252 1.078 0.586 1.467 1.007s0.679 0.908 0.87 1.445c0.192 0.542 0.285 1.095 0.285 1.658 0 0.301-0.033 0.618-0.099 0.958s-0.181 0.679-0.334 1.007c-0.159 0.334-0.378 0.646-0.657 0.947s-0.629 0.558-1.045 0.772c0.148 0.049 0.356 0.153 0.618 0.312s0.525 0.389 0.783 0.695c0.257 0.306 0.487 0.7 0.684 1.188s0.296 1.084 0.296 1.795c0.011 0.788-0.12 1.483-0.389 2.091z"></path>
</svg>
