<!-- Generated by IcoMoon.io -->
<svg version="1.1" xmlns="http://www.w3.org/2000/svg" width="32" height="32" viewBox="0 0 32 32">
<title>circle-o-notch</title>
<path d="M29.587 16q0 2.768-1.077 5.284t-2.894 4.332-4.332 2.894-5.284 1.077-5.284-1.077-4.332-2.894-2.894-4.332-1.077-5.284q0-3.35 1.525-6.267t4.167-4.804 5.882-2.375v3.586q-3.475 0.708-5.764 3.475t-2.288 6.385q0 2.044 0.802 3.908t2.147 3.208 3.208 2.146 3.908 0.802 3.908-0.802 3.208-2.146 2.146-3.208 0.802-3.908q0-3.617-2.288-6.385t-5.764-3.475v-3.586q3.24 0.488 5.882 2.375t4.167 4.804 1.525 6.267z"></path>
</svg>
