<!-- Generated by IcoMoon.io -->
<svg version="1.1" xmlns="http://www.w3.org/2000/svg" width="26" height="32" viewBox="0 0 26 32">
<title>country-unlimited</title>
<path d="M0 0h2.050v32h-2.050v-32zM2.050 3.572h15.582v1.532h-15.582v-1.532zM2.050 19.154h15.582v1.532h-15.582v-1.532zM17.632 3.572v15.582h-1.532v-15.582h1.532zM26.229 23.831h-15.721v-3.214h1.532v1.682h11.622l-3.383-6.299 3.373-5.91-6.209 0.040-0.010-1.532 8.866-0.050-4.269 7.483 4.199 7.801zM2.428 11.363h2.408v0.896h-2.408v-0.896zM5.811 11.363h2.408v0.896h-2.408v-0.896zM9.582 11.363h2.408v0.896h-2.408v-0.896zM13.313 11.363h2.408v0.896h-2.408v-0.896zM17.751 15.542h2.408v0.896h-2.408v-0.896z"></path>
</svg>
