<!-- Generated by IcoMoon.io -->
<svg version="1.1" xmlns="http://www.w3.org/2000/svg" width="41" height="32" viewBox="0 0 41 32">
<title>creditcard</title>
<path d="M12.571 27.429h5.714v-2.286h-6.857v2.286h1.143zM2.286 2.301v0 27.397c0 0.016-0.001 0.016-0.015 0.016h36.602c-0.015 0-0.015-0-0.015-0.016v-27.397c0-0.016 0.001-0.016 0.015-0.016h-36.602c0.015 0 0.015 0 0.015 0.016v0zM0 2.301c0-1.271 1.017-2.301 2.271-2.301h36.602c1.254 0 2.271 1.028 2.271 2.301v27.397c0 1.271-1.017 2.301-2.271 2.301h-36.602c-1.254 0-2.271-1.028-2.271-2.301v-27.397zM2.286 9.143h36.571v6.857h-36.571v-6.857zM5.714 27.429h3.429v-2.286h-4.571v2.286h1.143z"></path>
</svg>
