<!-- Generated by IcoMoon.io -->
<svg version="1.1" xmlns="http://www.w3.org/2000/svg" width="30" height="32" viewBox="0 0 30 32">
<title>download</title>
<path d="M0 20.211v8.437c0 1.857 1.508 3.353 3.37 3.353h23.576c1.855 0 3.37-1.507 3.37-3.353v-8.437c0-0.93-0.754-1.684-1.684-1.684s-1.684 0.754-1.684 1.684v8.437c0-0.019-0.003-0.016-0.001-0.016h-23.576c-0.008 0-0.001 0.006-0.001 0.016v-8.437c0-0.93-0.754-1.684-1.684-1.684s-1.684 0.754-1.684 1.684v0zM13.474 1.684h3.368v16.842h-3.368v-16.842zM16.842 1.684c0 0.93-0.754 1.684-1.684 1.684s-1.684-0.754-1.684-1.684c0-0.93 0.754-1.684 1.684-1.684s1.684 0.754 1.684 1.684zM7.972 11.217l9.692 9.36-2.34 2.423-9.692-9.36 2.34-2.423zM22.261 10.967l2.423 2.34-9.36 9.692-2.423-2.34 9.36-9.692z"></path>
</svg>
