<!-- Generated by IcoMoon.io -->
<svg version="1.1" xmlns="http://www.w3.org/2000/svg" width="33" height="32" viewBox="0 0 33 32">
<title>flags</title>
<path d="M0.705 31.829l0.215-0.096c0.191-0.080 0.422-0.167 0.693-0.263-2.17 0.713 0.184-0.198 2.669-0.763 3.726-0.787 7.802-1.219 11.978-1.219s8.252 0.431 12.185 1.252c-2.271-0.546 0.273-0.043 2.664 0.787 0.081 0.038 0.316 0.126 0.508 0.206l0.219 0.096 0.359 0.171 0.343-0.721-0.359-0.171-0.255-0.112c-0.203-0.084-0.45-0.179-0.737-0.279 2.295 0.764-0.161-0.198-2.757-0.796-3.788-0.803-7.926-1.242-12.166-1.242s-8.377 0.439-12.37 1.274c2.352-0.575-0.271-0.046-2.734 0.823-0.094 0.040-0.337 0.136-0.54 0.22l-0.255 0.112-0.359 0.171 0.343 0.717zM16.48 1.992v-1.593c0-0.22-0.178-0.398-0.398-0.398s-0.398 0.178-0.398 0.398v25.495c0 0.22 0.178 0.398 0.398 0.398s0.398-0.178 0.398-0.398v-14.341h12.747v-9.561h-12.747zM28.431 10.756h-7.569v-3.585h-0.797v3.585h-3.585v-7.967h7.967v4.382h0.797v-4.382h3.187v7.967zM22.057 15.138v-1.593c0-0.22-0.178-0.398-0.398-0.398s-0.398 0.178-0.398 0.398v13.054c0 0.22 0.178 0.398 0.398 0.398s0.398-0.178 0.398-0.398v-4.29h8.764v-7.17h-8.764zM30.024 15.934v2.39h-7.967v-2.39h7.967zM22.057 21.511v-2.39h7.967v2.39h-7.967zM10.505 9.162c0-0.22-0.178-0.398-0.398-0.398s-0.398 0.178-0.398 0.398v1.593h-8.764v7.17h8.764v8.672c0 0.22 0.178 0.398 0.398 0.398s0.398-0.178 0.398-0.398v-17.436zM9.708 11.552v1.661l-7.967 1.406v-3.067h7.967zM1.741 17.129v-1.701l7.967-1.406v3.107h-7.967z"></path>
</svg>
