<!-- Generated by IcoMoon.io -->
<svg version="1.1" xmlns="http://www.w3.org/2000/svg" width="61" height="32" viewBox="0 0 61 32">
<title>get-a-subscription</title>
<path d="M38.221 5.741h1.318v20.582h-1.318v-20.582zM39.539 8.038h10.022v0.986h-10.022v-0.986zM39.539 18.061h10.022v0.986h-10.022v-0.986zM49.562 8.038v10.022h-0.986v-10.022h0.986zM55.085 21.062h-10.106v-2.061h0.986v1.082h7.475l-2.176-4.051 2.17-3.802-3.994 0.026-0.006-0.986 5.702-0.032-2.746 4.806 2.694 5.018zM39.782 13.050h1.549v0.576h-1.549v-0.576zM41.952 13.050h1.549v0.576h-1.549v-0.576zM44.384 13.050h1.549v0.576h-1.549v-0.576zM46.784 13.050h1.549v0.576h-1.549v-0.576zM49.638 15.738h1.549v0.576h-1.549v-0.576zM0 0v32h30.72v-32h-30.72zM21.76 24.96h-5.997c-2.202 0-3.84-0.403-4.851-1.395-0.957-0.913-1.552-2.199-1.552-3.623 0-0.065 0.001-0.13 0.004-0.194-0-2.333 1.094-3.831 3.283-4.714l-2.957-7.354h3.462l2.605 7.040h2.803v-7.040h3.2v17.28zM13.651 17.92c-0.536 0.453-0.873 1.125-0.873 1.876 0 0.043 0.001 0.085 0.003 0.127-0.001 0.017-0.002 0.044-0.002 0.071 0 0.717 0.334 1.355 0.854 1.769 0.573 0.414 1.284 0.661 2.053 0.661 0.122 0 0.242-0.006 0.361-0.018l2.545 0.001v-5.12h-2.266c-1.216-0.006-2.099 0.122-2.675 0.634zM59.84 1.28v29.44h-28.16v-29.44h28.16zM61.12 0h-30.72v32h30.72v-32z"></path>
</svg>
