<!-- Generated by IcoMoon.io -->
<svg version="1.1" xmlns="http://www.w3.org/2000/svg" width="32" height="32" viewBox="0 0 32 32">
<title>googleplus</title>
<path d="M19.81 0.76h-9.393c-4.297 0-8.343 3.016-8.343 6.786 0 3.852 2.929 6.848 7.301 6.848 0.305 0 0.6-0.069 0.89-0.090-0.286 0.541-0.485 1.123-0.485 1.758 0 1.071 0.574 1.926 1.301 2.635-0.546 0-1.080 0.008-1.661 0.008-5.322 0.001-9.42 3.389-9.42 6.904 0 3.462 4.492 5.63 9.815 5.63 6.069 0 9.422-3.447 9.422-6.909 0-2.775-0.82-4.439-3.351-6.234-0.867-0.611-2.523-2.103-2.523-2.981 0-1.027 0.293-1.533 1.841-2.743 1.583-1.237 2.706-2.714 2.706-4.741 0-2.409-1.036-5.349-3.052-5.349h3.429l1.523-1.522zM16.657 23.73c0.073 0.323 0.117 0.654 0.117 0.989 0 2.798-1.806 4.984-6.979 4.984-3.68 0-6.336-2.328-6.336-5.126 0-2.741 3.296-5.026 6.978-4.984 0.856 0.009 1.658 0.148 2.383 0.379 1.998 1.392 3.43 2.177 3.837 3.758v0zM10.763 13.294c-2.47-0.072-4.818-2.763-5.243-6.004-0.425-3.246 1.231-5.728 3.7-5.655 2.469 0.076 4.818 2.679 5.243 5.922 0.426 3.242-1.23 5.81-3.7 5.737v0zM27.429 12.94v-4.571h-3.048v4.571h-4.571v3.048h4.571v4.571h3.048v-4.571h4.571v-3.048h-4.571z"></path>
</svg>
