<!-- Generated by IcoMoon.io -->
<svg version="1.1" xmlns="http://www.w3.org/2000/svg" width="32" height="32" viewBox="0 0 32 32">
<title>googleplay</title>
<path d="M29.54 17.471l-5.373 2.962-4.896-4.539 4.571-4.341 5.698 3.159c0 0 1.104 0.485 1.104 1.287 0 0.914-1.104 1.471-1.104 1.471zM2.371 0.226c0.094-0.025 0.194-0.043 0.308-0.043 0.856 0 1.656 0.552 1.656 0.552l17.674 9.801-3.915 4.266-15.723-14.576zM16.908 16.094l-14.502 15.802c-1.22-0.244-1.017-2.102-1.015-2.287v-27.586c0 0-0.022-1.503 0.951-1.788l14.566 15.86zM21.993 21.631l-17.475 9.633c0 0-1.114 0.659-1.833 0.659-0.097 0-0.186-0.009-0.269-0.024l15.494-14.713 4.083 4.446z"></path>
</svg>
