<!-- Generated by IcoMoon.io -->
<svg version="1.1" xmlns="http://www.w3.org/2000/svg" width="60" height="32" viewBox="0 0 60 32">
<title>handshake</title>
<path d="M50.555 24.368l-0.57-1.101-2.133 0.491-7.45-14.871 20.004-7.82-0.416-1.061-21.168 8.277 0.913 1.82c-0.368 0.503-0.956 0.826-1.62 0.826-0.237 0-0.465-0.041-0.676-0.117 1.46 0.764-0.617-0.121-2.406-1.385-0.991-0.641-1.903-1.229-2.668-1.343-0.359-0.308-1.244-0.85-3.052-0.89-1.575 0.015-3.3 0.492-4.808 1.317-0.286 0.126-0.617 0.28-0.936 0.411 1.346-0.501-0.321 0.237-2.101 0.693l0.533-1.515-21.607-7.986-0.394 1.072 20.483 7.569-6.742 15.892-1.774-0.844-0.992 1.432-4.74-2.082-0.456 1.044 5.601 2.464 0.975-1.403 1.974 0.941 1.654-3.902 0.662 0.325c-0.001 0.038-0.002 0.083-0.002 0.128 0 0.754 0.16 1.471 0.448 2.118 0.557 1.364 1.978 1.678 2.708 1.747 0.273 0.772 1.066 1.515 2.054 1.791 0.050 0.595 0.379 1.168 0.872 1.53 0.572 0.45 1.295 0.719 2.081 0.719 0.034 0 0.069-0.001 0.103-0.002 0.58 0.819 1.527 1.346 2.598 1.346 0.012 0 0.023-0 0.035-0h0.112c0.016 0 0.035 0.001 0.054 0.001 0.896 0 1.691-0.432 2.188-1.1 0.284 0.093 0.605 0.15 0.94 0.15 0.511 0 0.991-0.135 1.406-0.37 0.209-0.074 0.604-0.483 0.819-0.988 0.141 0.015 0.298 0.032 0.458 0.032 0.457 0 0.881-0.139 1.233-0.377 0.085 0.050 0.735-0.423 1.194-1.046l0.041-0.010c0.13 0.024 0.279 0.038 0.431 0.038 0.567 0 1.090-0.19 1.509-0.51 0.584-0.249 1.179-0.932 1.404-1.767 0.022-0.019 0.043-0.019 0.064-0.019 0.569 0 1.087-0.217 1.477-0.573 0.449-0.451 0.727-1.075 0.727-1.764 0-0.358-0.075-0.698-0.21-1.005l3.914-1.49 1.928 3.845 2.133-0.491 0.605 1.215 6.092-2.282-0.394-1.067zM29.102 30.044c-0.262 0.494-0.772 0.824-1.36 0.824-0.057 0-0.114-0.003-0.17-0.009-1.185-0.045-1.704-0.73-1.761-0.912l-0.108-0.639-0.622 0.177c-0.105 0.019-0.226 0.030-0.349 0.030-0.508 0-0.973-0.186-1.33-0.494-0.244-0.174-0.403-0.459-0.403-0.781 0-0.054 0.004-0.107 0.013-0.158l0.136-0.61-0.622-0.080c-0.803-0.087-1.502-0.675-1.758-1.462l-0.118-0.466h-0.462s-1.603 0.051-2.059-1.084c-0.2-0.426-0.339-1.002-0.354-1.609 0.354-0.164 0.768-0.257 1.203-0.257s0.849 0.093 1.223 0.26c0.415 0.092 0.987 0.556 1.315 1.171l0.309 0.869 0.645-0.645c0.365-0.365 1.289-1.044 1.848-0.827 0.43 0.091 1.099 0.611 1.509 1.303l0.305 0.585 0.542-0.376c0.202-0.115 0.443-0.183 0.7-0.183 0.277 0 0.536 0.079 0.755 0.215 0.758 0.424 0.701 0.96 0.342 1.736-0.081 0.137-0.13 0.305-0.131 0.485v0.308l0.268 0.154c0.323 0.121 0.658 0.48 0.796 0.925 0.027 0.116 0.040 0.237 0.040 0.361 0 0.191-0.033 0.375-0.092 0.546zM35.981 26.94l-3.422-2.852-0.73 0.878 3.16 2.635c0.026 0.057-0.358 0.45-0.83 0.701-0.172 0.14-0.378 0.221-0.603 0.221-0.177 0-0.342-0.050-0.482-0.136l-2.215-2.165-0.799 0.816 2.008 1.962c-0.029 0.204-0.21 0.477-0.464 0.653-0.218 0.111-0.471 0.175-0.74 0.175-0.163 0-0.32-0.023-0.468-0.067 0.112-0.274 0.17-0.594 0.17-0.927 0-0.216-0.024-0.427-0.071-0.629-0.048-0.402-0.403-0.971-0.908-1.351 0.524-1.339 0.21-2.338-0.936-2.982-0.374-0.223-0.824-0.355-1.306-0.355-0.292 0-0.573 0.049-0.834 0.138-0.112-0.346-0.866-1.028-1.779-1.399-0.969-0.369-1.956 0.167-2.549 0.612-0.773-0.939-1.935-1.533-3.236-1.533-0.567 0-1.107 0.113-1.6 0.317l-0.942-0.489 4.404-10.284v0.046c-0.563 0.231 1.442-0.234 3.291-0.996 0.217-0.093 0.559-0.253 0.918-0.412 1.249-0.57 2.652-1.221 4.255-1.186 0.23-0.001 0.568 0.027 0.898 0.079 1.269-0.471-1.675 0.259-4.381 1.435-0.297 0.19-0.898 0.959-1.16 1.871-0.046 0.169-0.092 0.323-0.138 0.494 0.038 0.13-0.201 0.903-0.584 1.584-0.291 0.429-0.472 0.989-0.472 1.592 0 0.196 0.019 0.388 0.056 0.573 0.043 0.31 0.292 0.647 0.635 0.828 0.367 0.144 0.785 0.226 1.221 0.226 0.903 0 1.724-0.349 2.335-0.921 0.26-0.243 0.489-0.477 0.7-0.694-0.158 0.009 0.709-0.842 1.758-1.393-0.579 0.316-0.001-0.047 0.635-0.294l0.174 0.119c-0.823-0.895-0.232-0.146 0.491 0.447 0.907 0.733 6.16 4.743 6.423 4.937 0.78 0.449 1.724 1.697 2.113 3.17l0.009 0.132 0.051 0.080c0.086 0.063 0.295 0.461 0.391 0.901 0.009 0.066 0.012 0.124 0.012 0.182 0 0.374-0.137 0.716-0.364 0.978-0.225 0.167-0.511 0.268-0.82 0.268-0.142 0-0.28-0.021-0.409-0.061l-0.036 0.003c1.039 1.036-0.431-0.201-1.54-1.718-0.462-0.82-2.242-2.388-2.447-2.565l-0.753 0.861c-1.407-1.289 0.607 0.261 2.156 2.2-0.942-1.144 0.328 0.737 1.968 2.216-0.068 0.361-0.419 0.79-0.885 1.027-0.615 0.393-1.003 0.398-1.185 0.284v0zM40.921 21.71c-0.12-0.899-1.075-2.375-2.407-3.376-0.075-0.053-5.482-4.177-6.366-4.895 0.803 0.618 0.133 0.178-0.416-0.381-0.657-0.651-1.016-0.571-2.1-0.052 0.034-0.177-1.173 0.59-2.087 1.624-0.206 0.213-0.417 0.43-0.668 0.664-0.408 0.386-0.959 0.623-1.566 0.623-0.256 0-0.502-0.042-0.731-0.12-0.027-0.132-0.052-0.29-0.052-0.453 0-0.334 0.105-0.644 0.283-0.899 0.11-0.045 0.534-0.92 0.737-1.877 0.047-0.194 0.087-0.343 0.127-0.474 0.038-0.358 0.37-0.922 0.846-1.32 0.415-0.249 4.465-1.561 5.531-1.561 0.479 0 1.472 0.645 2.35 1.215-1.521-0.987 0.347 0.443 2.468 1.42 0.43 0.176 0.814 0.255 1.216 0.255 0.841 0 1.602-0.344 2.151-0.898l4.512 9.012z"></path>
</svg>
