<!-- Generated by IcoMoon.io -->
<svg version="1.1" xmlns="http://www.w3.org/2000/svg" width="32" height="32" viewBox="0 0 32 32">
<title>help-filled</title>
<path d="M30.894 16c0 8.403-6.797 15.2-15.2 15.2s-15.2-6.797-15.2-15.2 6.797-15.2 15.2-15.2 15.2 6.797 15.2 15.2zM16.065 20.511v-0.741c-0.062-1.421 0.371-2.595 1.545-4.078 1.298-1.545 2.348-2.904 2.348-4.819 0-2.101-1.421-4.078-4.634-4.078-1.483 0-3.028 0.433-3.954 1.112l0.68 1.73c0.68-0.494 1.792-0.865 2.78-0.865 1.73 0 2.595 0.989 2.595 2.348 0 1.236-0.68 2.286-1.915 3.769-1.359 1.668-1.854 3.275-1.73 4.758l0.062 0.741h2.224zM14.891 26.072c1.050 0 1.668-0.741 1.668-1.73 0-1.050-0.68-1.73-1.607-1.73-0.989 0-1.668 0.741-1.668 1.73s0.68 1.73 1.607 1.73z"></path>
</svg>
