<!-- Generated by IcoMoon.io -->
<svg version="1.1" xmlns="http://www.w3.org/2000/svg" width="32" height="32" viewBox="0 0 32 32">
<title>help</title>
<path d="M16 1.53c8.003 0 14.47 6.466 14.47 14.47s-6.53 14.47-14.47 14.47-14.47-6.466-14.47-14.47 6.466-14.47 14.47-14.47zM16 0.25c-8.707 0-15.75 7.043-15.75 15.75s7.043 15.75 15.75 15.75 15.75-7.043 15.75-15.75-7.043-15.75-15.75-15.75v0z"></path>
<path d="M16.384 20.674v-0.768c-0.064-1.473 0.384-2.689 1.601-4.226 1.345-1.601 2.433-3.009 2.433-4.994 0-2.177-1.473-4.226-4.802-4.226-1.537 0-3.137 0.448-4.098 1.152l0.704 1.793c0.704-0.512 1.857-0.896 2.881-0.896 1.793 0 2.689 1.024 2.689 2.433 0 1.28-0.704 2.369-1.985 3.905-1.409 1.729-1.921 3.393-1.793 4.93l0.064 0.768h2.305z"></path>
<path d="M15.168 26.436c1.088 0 1.729-0.768 1.729-1.793 0-1.088-0.704-1.793-1.665-1.793-1.024 0-1.729 0.768-1.729 1.793s0.704 1.793 1.665 1.793z"></path>
</svg>
