<!-- Generated by IcoMoon.io -->
<svg version="1.1" xmlns="http://www.w3.org/2000/svg" width="32" height="32" viewBox="0 0 32 32">
<title>info-big</title>
<path d="M16 31.85c8.754 0 15.85-7.096 15.85-15.85s-7.096-15.85-15.85-15.85c-8.754 0-15.85 7.096-15.85 15.85s7.096 15.85 15.85 15.85v0zM16 30.953c-8.258 0-14.953-6.695-14.953-14.953s6.695-14.953 14.953-14.953c8.258 0 14.953 6.695 14.953 14.953s-6.695 14.953-14.953 14.953v0zM14.953 14.654v9.421h2.093v-10.467h-2.093v1.047zM17.645 9.421c0 0.908-0.736 1.645-1.645 1.645s-1.645-0.736-1.645-1.645c0-0.908 0.736-1.645 1.645-1.645s1.645 0.736 1.645 1.645z"></path>
</svg>
