<!-- Generated by IcoMoon.io -->
<svg version="1.1" xmlns="http://www.w3.org/2000/svg" width="32" height="32" viewBox="0 0 32 32">
<title>instagram</title>
<path d="M25.865 0.521h-19.465c-3.381 0-6.132 2.696-6.132 6.011v19.084c0 3.315 2.751 6.011 6.132 6.011h19.466c3.381 0 6.131-2.696 6.131-6.011v-19.085c-0.001-3.315-2.751-6.010-6.132-6.010v0zM27.624 4.106l0.701-0.003v5.272l-5.36 0.017-0.019-5.272 4.677-0.015zM11.604 12.882c1.016-1.379 2.665-2.283 4.529-2.283s3.512 0.904 4.527 2.283c0.661 0.9 1.057 2 1.057 3.192 0 3.019-2.508 5.474-5.585 5.474-3.080 0-5.585-2.456-5.585-5.474 0.001-1.192 0.396-2.293 1.057-3.192v0zM28.905 25.616c0 1.645-1.364 2.98-3.040 2.98h-19.465c-1.677 0-3.041-1.336-3.041-2.98v-12.734h4.736c-0.409 0.986-0.639 2.064-0.639 3.192 0 4.689 3.891 8.506 8.676 8.506s8.675-3.817 8.675-8.506c0-1.129-0.231-2.206-0.64-3.192h4.737v12.734z"></path>
</svg>
