<!-- Generated by IcoMoon.io -->
<svg version="1.1" xmlns="http://www.w3.org/2000/svg" width="32" height="32" viewBox="0 0 32 32">
<title>internetfree</title>
<path d="M15.744 30.528c-0.384 0-0.832 0-1.216-0.064-0.064 0-0.128 0-0.192 0-0.384-0.064-0.768-0.064-1.152-0.128-0.064 0-0.128 0-0.192-0.064-0.384-0.064-0.768-0.128-1.088-0.256-0.064 0-0.128 0-0.128-0.064-0.384-0.128-0.768-0.256-1.152-0.384 0 0 0 0 0 0-0.384-0.128-0.768-0.32-1.152-0.448 0 0-0.064 0-0.064 0-0.384-0.192-0.704-0.32-1.024-0.576-0.064 0-0.064-0.064-0.128-0.064-0.32-0.192-0.64-0.384-0.96-0.64 0 0-0.064-0.064-0.064-0.064-0.32-0.256-0.64-0.448-0.96-0.704l10.368-10.368c0.96 0.192 2.048 0.64 3.136 1.536 0.064 0.064 0.192 0.128 0.32 0.128s0.256-0.064 0.384-0.192c0.192-0.192 0.128-0.512-0.064-0.704-1.024-0.768-1.984-1.28-2.944-1.536l1.984-1.984c1.024 0.448 2.048 1.152 3.072 1.984 0.064 0.064 0.192 0.128 0.32 0.128s0.256-0.064 0.384-0.192c0.192-0.192 0.128-0.512-0.064-0.704-1.024-0.832-2.048-1.536-3.008-1.984l2.304-2.304c0.96 0.576 1.92 1.344 2.88 2.24 0.064 0.064 0.192 0.128 0.32 0.128s0.256-0.064 0.32-0.128c0.192-0.192 0.192-0.512 0-0.704-0.96-0.896-1.856-1.6-2.816-2.24l3.904-3.904c0.256 0.32 0.512 0.64 0.768 0.96 0 0 0.064 0.064 0.064 0.064 0.256 0.32 0.448 0.64 0.64 1.024 0 0 0 0.064 0.064 0.064 0.192 0.32 0.384 0.704 0.576 1.088 0 0 0 0 0 0 0.192 0.384 0.32 0.768 0.512 1.152 0 0 0 0 0 0 0.128 0.384 0.256 0.768 0.384 1.152 0 0.064 0 0.128 0.064 0.128 0.128 0.384 0.192 0.768 0.256 1.152 0 0.064 0 0.128 0.064 0.192 0.064 0.384 0.128 0.768 0.128 1.152 0 0.064 0 0.128 0 0.192 0.064 0.384 0.064 0.832 0.064 1.216-0.128 8.064-6.784 14.72-14.912 14.72zM15.744 0.96c0.256 0 0.512 0 0.768 0 0.064 0 0.128 0 0.256 0 0.192 0 0.384 0 0.512 0.064 0.064 0 0.192 0 0.256 0.064 0.192 0 0.32 0.064 0.512 0.064 0.064 0 0.192 0 0.256 0.064 0.192 0 0.32 0.064 0.512 0.064 0.064 0 0.128 0.064 0.256 0.064 0.192 0.064 0.32 0.064 0.512 0.128 0.064 0 0.128 0.064 0.192 0.064 0.192 0.064 0.32 0.128 0.512 0.128 0.064 0 0.128 0.064 0.192 0.064 0.192 0.064 0.32 0.128 0.512 0.192 0 0 0.064 0 0.128 0.064 0.192 0.064 0.384 0.128 0.512 0.192 0.064 0 0.064 0.064 0.128 0.064 0.192 0.064 0.384 0.192 0.512 0.256 0.064 0 0.128 0.064 0.128 0.064 0.192 0.064 0.384 0.192 0.576 0.32 0 0 0.064 0 0.064 0.064 0.192 0.128 0.384 0.192 0.576 0.32 0 0 0.064 0 0.064 0.064 0.192 0.128 0.384 0.256 0.576 0.384 0 0 0 0 0.064 0 0.192 0.128 0.384 0.256 0.576 0.384 0 0 0 0 0 0 0.192 0.128 0.384 0.32 0.576 0.448 0 0 0 0 0 0 0.192 0.128 0.384 0.32 0.512 0.512 0 0 0 0 0 0 0.192 0.192 0.32 0.32 0.512 0.512 0 0 0 0 0 0l-4.096 4.096c-9.344-5.248-17.792 2.368-17.856 2.432-0.192 0.192-0.192 0.512 0 0.704s0.512 0.192 0.704 0c0.384-0.32 7.872-7.104 16.448-2.432l-2.432 2.432c-6.72-2.688-11.712 2.368-11.776 2.432-0.192 0.192-0.192 0.512 0 0.704s0.512 0.192 0.704 0c0.192-0.192 4.416-4.544 10.304-2.368l-2.112 2.112c-3.584-0.512-6.272 1.792-6.272 1.792-0.192 0.192-0.192 0.448-0.064 0.704 0.192 0.192 0.448 0.192 0.704 0.064 0 0 1.984-1.728 4.736-1.664l-9.92 9.856c0 0 0 0 0 0-0.192-0.192-0.32-0.32-0.512-0.512 0 0 0 0 0 0-0.192-0.192-0.32-0.32-0.512-0.512 0 0 0 0 0 0-0.128-0.192-0.32-0.384-0.448-0.576 0 0 0 0 0 0-0.128-0.192-0.256-0.384-0.384-0.576 0 0 0 0 0-0.064-0.128-0.192-0.256-0.384-0.384-0.576 0 0 0-0.064-0.064-0.064-0.128-0.192-0.256-0.384-0.32-0.576 0 0-0.064-0.064-0.064-0.064-0.128-0.128-0.256-0.32-0.32-0.512 0-0.064-0.064-0.064-0.064-0.128-0.064-0.192-0.192-0.384-0.256-0.576 0-0.064-0.064-0.064-0.064-0.128-0.064-0.192-0.128-0.384-0.192-0.512-0.064 0-0.064-0.064-0.064-0.128-0.064-0.192-0.128-0.32-0.192-0.512 0-0.064-0.064-0.128-0.064-0.192-0.064-0.192-0.128-0.32-0.128-0.512 0-0.064-0.064-0.128-0.064-0.192-0.064-0.192-0.064-0.32-0.128-0.512-0.064-0.064-0.064-0.128-0.064-0.256-0.064-0.192-0.064-0.32-0.064-0.512 0-0.064 0-0.192-0.064-0.256 0-0.192-0.064-0.32-0.064-0.512 0-0.064 0-0.192 0-0.256 0-0.192 0-0.384-0.064-0.512 0-0.064 0-0.128 0-0.256 0-0.256 0-0.512 0-0.768-0.064-8.064 6.592-14.72 14.72-14.72zM15.744 0c-8.704 0-15.744 7.040-15.744 15.744 0 0.384 0 0.768 0.064 1.152 0 0.064 0 0.064 0 0.128 0.448 5.824 4.096 10.816 9.216 13.056 0 0 0 0 0.064 0 0.384 0.192 0.704 0.32 1.088 0.448 0 0 0 0 0 0s0 0 0 0c0.384 0.128 0.832 0.256 1.28 0.384 0 0 0 0 0 0 0.384 0.128 0.832 0.192 1.216 0.256 0.064 0 0.128 0 0.128 0 0.384 0.064 0.768 0.128 1.216 0.128 0.064 0 0.128 0 0.192 0 0.384 0 0.832 0.064 1.216 0.064 8.704 0 15.744-7.040 15.744-15.744s-6.976-15.616-15.68-15.616z"></path>
<path d="M15.168 22.656c-0.448 0-0.832-0.384-0.832-0.832s0.384-0.832 0.832-0.832 0.832 0.32 0.832 0.768c0 0.512-0.384 0.896-0.832 0.896zM15.168 19.968c-1.024 0-1.792 0.832-1.792 1.792 0 1.024 0.832 1.792 1.792 1.792 1.024 0 1.792-0.832 1.792-1.792s-0.832-1.792-1.792-1.792z"></path>
</svg>
