<!-- Generated by IcoMoon.io -->
<svg version="1.1" xmlns="http://www.w3.org/2000/svg" width="30" height="32" viewBox="0 0 30 32">
<title>landline</title>
<path d="M27.28 29.105h-24.739v-8.33l9.079-10.62h6.803l8.857 10.752zM3.582 28.064h22.657v-6.782l-8.33-10.1h-5.831l-8.496 9.968z"></path>
<path d="M15 25.26c-2.722 0-4.928-2.207-4.928-4.928s2.207-4.928 4.928-4.928c2.722 0 4.928 2.207 4.928 4.928 0 0.002 0 0.005 0 0.007-0.004 2.719-2.209 4.921-4.928 4.921 0 0 0 0 0 0zM15 16.451c-2.147 0-3.887 1.74-3.887 3.887s1.74 3.887 3.887 3.887c2.147 0 3.887-1.74 3.887-3.887s-1.74-3.887-3.887-3.887z"></path>
<path d="M15 22.907c-1.418 0-2.568-1.15-2.568-2.568s1.15-2.568 2.568-2.568c1.418 0 2.568 1.15 2.568 2.568-0.004 1.417-1.151 2.564-2.568 2.568zM15 18.804c-0.843 0-1.527 0.684-1.527 1.527s0.684 1.527 1.527 1.527c0.843 0 1.527-0.684 1.527-1.527-0.008-0.839-0.688-1.516-1.527-1.52z"></path>
<path d="M1.152 10.738l-0.153-0.153c-0.375-0.414-0.64-0.933-0.747-1.508-0.162-0.659-0.253-1.393-0.253-2.149 0-0.654 0.068-1.292 0.198-1.908 0.078-0.537 0.326-1.065 0.687-1.493l0.080-0.058c1.12-0.758 2.41-1.396 3.783-1.849 1.462-0.504 3.074-0.905 4.734-1.163 1.926-0.296 3.962-0.453 6.035-0.453 1.625 0 3.228 0.097 4.803 0.285 1.638 0.2 3.284 0.554 4.871 1.042 1.295 0.384 2.601 0.98 3.798 1.734l0.011 0.024c0.375 0.413 0.641 0.933 0.747 1.508 0.174 0.682 0.272 1.443 0.272 2.227 0 0.626-0.063 1.238-0.182 1.828-0.079 0.538-0.327 1.065-0.688 1.494l-0.079 0.086-0.118 0.042c-0.471 0.133-1.012 0.209-1.571 0.209-0.323 0-0.64-0.025-0.949-0.074-1.074-0.099-2.070-0.26-3.044-0.484-0.726-0.171-1.504-0.373-2.156-0.581l-0.118-0.035-0.090-0.083c-0.187-0.18-0.416-0.534-0.694-2.388-0.074-0.658-0.213-1.257-0.413-1.828-0.823-0.252-1.794-0.447-2.805-0.483-0.534-0.041-1.138-0.064-1.747-0.064-0.857 0-1.704 0.046-2.538 0.135-0.933 0.062-1.896 0.29-2.792 0.652-0.109 0.486-0.244 1.083-0.315 1.699-0.24 1.902-0.455 2.263-0.643 2.45l-0.083 0.090-0.118 0.042c-1.009 0.335-2.214 0.616-3.453 0.792-1.262 0.22-2.613 0.362-3.989 0.408zM1.603 4.29c-0.202 0.284-0.342 0.625-0.394 0.994-0.107 0.503-0.167 1.068-0.167 1.646 0 0.669 0.081 1.319 0.233 1.941 0.054 0.284 0.172 0.587 0.336 0.859 1.302-0.071 2.528-0.205 3.728-0.412 1.059-0.15 2.145-0.393 3.199-0.71-0.011-0.464 0.102-1.059 0.157-1.671 0.239-1.905 0.454-2.259 0.641-2.446l0.132-0.097c0.972-0.442 2.102-0.731 3.291-0.804 0.877-0.106 1.861-0.165 2.859-0.165 0.528 0 1.051 0.017 1.57 0.049 1.14 0.030 2.282 0.282 3.332 0.714l0.075 0.074c0.187 0.18 0.416 0.534 0.694 2.388 0.077 0.651 0.211 1.241 0.4 1.805 0.572 0.111 1.259 0.291 2.064 0.472 0.776 0.184 1.723 0.338 2.687 0.43 0.349 0.049 0.648 0.073 0.953 0.073 0.377 0 0.745-0.037 1.102-0.106 0.137-0.266 0.261-0.587 0.316-0.931 0.103-0.496 0.161-1.050 0.161-1.617 0-0.68-0.083-1.341-0.24-1.973-0.054-0.323-0.206-0.659-0.423-0.942-1.040-0.645-2.245-1.189-3.522-1.565-1.429-0.442-3.004-0.78-4.623-0.978-1.471-0.18-3.020-0.276-4.591-0.276-0.234 0-0.467 0.002-0.699 0.006-1.789 0.024-3.557 0.175-5.285 0.443-1.547 0.241-3.105 0.628-4.605 1.141-1.17 0.389-2.353 0.97-3.436 1.691z"></path>
<path d="M5.296 32c-0.288 0-0.521-0.233-0.521-0.521v-2.43c0-0.288 0.233-0.521 0.521-0.521s0.521 0.233 0.521 0.521v2.423c0 0.002 0 0.005 0 0.007 0 0.288-0.233 0.521-0.521 0.521-0 0-0 0-0 0z"></path>
<path d="M11.967 10.808c-0.288 0-0.521-0.233-0.521-0.521v-2.423c0-0.288 0.233-0.521 0.521-0.521s0.521 0.233 0.521 0.521v2.423c0 0.288-0.233 0.521-0.521 0.521z"></path>
<path d="M17.978 10.808c-0.288 0-0.521-0.233-0.521-0.521v-2.423c0-0.288 0.233-0.521 0.521-0.521s0.521 0.233 0.521 0.521v2.423c0 0.288-0.233 0.521-0.521 0.521z"></path>
<path d="M24.836 32c-0.288 0-0.521-0.233-0.521-0.521v-2.43c0-0.288 0.233-0.521 0.521-0.521s0.521 0.233 0.521 0.521v2.423c0 0.002 0 0.005 0 0.007 0 0.288-0.233 0.521-0.521 0.521-0 0-0 0-0 0z"></path>
</svg>
