<!-- Generated by IcoMoon.io -->
<svg version="1.1" xmlns="http://www.w3.org/2000/svg" width="32" height="32" viewBox="0 0 32 32">
<title>linkedin</title>
<path d="M32 31.292v-11.832c0-6.34-3.384-9.29-7.896-9.29-3.641 0-5.273 2.003-6.182 3.409v-2.924h-6.86c0.091 1.937 0 20.637 0 20.637h6.86v-11.525c0-0.615 0.044-1.232 0.226-1.672 0.495-1.233 1.624-2.509 3.518-2.509 2.483 0 3.475 1.892 3.475 4.666v11.041l6.859-0.001zM3.835 7.838c2.391 0 3.882-1.586 3.882-3.567-0.044-2.024-1.49-3.564-3.836-3.564s-3.881 1.539-3.881 3.564c0 1.981 1.489 3.567 3.792 3.567h0.043zM7.265 31.292v-20.637h-6.859v20.637h6.859z"></path>
</svg>
