<!-- Generated by IcoMoon.io -->
<svg version="1.1" xmlns="http://www.w3.org/2000/svg" width="32" height="32" viewBox="0 0 32 32">
<title>lock</title>
<path d="M25.138 31.2h-18.276c-1.689 0-3.016-1.267-3.016-2.835v-13.029c0-1.568 1.387-2.835 3.016-2.835h18.276c1.689 0 3.016 1.267 3.016 2.835v13.029c0 1.568-1.327 2.835-3.016 2.835zM6.862 13.648c-1.025 0-1.81 0.724-1.81 1.629v13.029c0 0.905 0.844 1.629 1.81 1.629h18.276c1.025 0 1.81-0.724 1.81-1.629v-12.968c0-0.905-0.844-1.629-1.81-1.629h-18.276z"></path>
<path d="M22.002 13.587c-0.362 0-0.603-0.241-0.603-0.603s0-0.724 0-1.086c0-2.775 0.060-5.609-1.448-7.6-1.086-1.448-2.594-2.171-4.222-2.051-1.689 0.121-3.197 1.206-4.102 2.895-1.086 2.051-1.086 4.524-1.086 6.937 0 0.241 0 0.422 0 0.664 0 0 0 0 0 0v0.241h-1.206c0-0.302 0-0.603 0-0.905 0-2.533-0.060-5.187 1.206-7.54 1.086-2.051 3.016-3.378 5.127-3.559 2.051-0.181 3.981 0.784 5.308 2.533 1.749 2.292 1.689 5.489 1.689 8.324 0 0.362 0 0.724 0 1.086-0.060 0.422-0.302 0.664-0.664 0.664z"></path>
<path d="M15.849 18.413c1.448 0 2.594 1.146 2.594 2.594 0 1.146-0.724 2.111-1.81 2.473v2.171c0 0 0 0.060 0 0.060 0 0.422-0.362 0.784-0.784 0.784s-0.844-0.362-0.844-0.844c0 0 0-0.060 0-0.060s0-1.689 0-2.171c-1.025-0.362-1.81-1.327-1.81-2.473 0.060-1.327 1.267-2.533 2.654-2.533zM15.849 17.206c-2.111 0-3.8 1.689-3.8 3.8 0 1.327 0.664 2.533 1.81 3.197 0 0.543 0 1.206 0 1.387 0 0 0 0.060 0 0.121 0 1.086 0.905 2.051 2.051 2.051 1.086 0 1.93-0.844 1.991-1.87 0 0 0-0.181 0-0.181v-1.387c1.086-0.664 1.81-1.87 1.81-3.197 0-2.171-1.749-3.921-3.86-3.921v0z"></path>
</svg>
