<!-- Generated by IcoMoon.io -->
<svg version="1.1" xmlns="http://www.w3.org/2000/svg" width="47" height="32" viewBox="0 0 47 32">
<title>makemoney</title>
<path d="M1.209 11.695v0l5.127 19.135c0.001 0.005-0 0.004 0.002 0.003l39.354-10.545c-0.001 0 0.001-0.003 0-0.004l-5.127-19.135c-0.001-0.005 0-0.004-0.002-0.003l-39.354 10.545c0.001-0-0.001 0.003-0 0.004v0zM0.143 11.98c-0.158-0.591 0.194-1.198 0.781-1.356l39.354-10.545c0.589-0.158 1.194 0.188 1.354 0.784l5.127 19.135c0.158 0.591-0.194 1.198-0.781 1.356l-39.354 10.545c-0.589 0.158-1.194-0.188-1.354-0.784l-5.127-19.135zM23.637 12.251c-0.079-0.096-0.167-0.187-0.265-0.273s-0.214-0.164-0.351-0.234c-0.343-0.164-0.733-0.188-1.17-0.070-0.269 0.072-0.482 0.172-0.639 0.299s-0.277 0.261-0.357 0.399c-0.087 0.151-0.135 0.292-0.143 0.422s0.008 0.27 0.048 0.419c0.045 0.169 0.116 0.313 0.211 0.431s0.229 0.218 0.4 0.301c0.133 0.060 0.308 0.115 0.524 0.164s0.4 0.079 0.552 0.092l0.826 0.099c0.308 0.035 0.633 0.094 0.975 0.178s0.663 0.225 0.961 0.422c0.336 0.219 0.596 0.475 0.781 0.766s0.321 0.602 0.409 0.93c0.112 0.418 0.153 0.831 0.124 1.238s-0.157 0.828-0.382 1.262c-0.179 0.325-0.385 0.591-0.618 0.797s-0.496 0.376-0.791 0.508l0.404 1.507-1.104 0.296-0.392-1.462c-0.366 0.066-0.731 0.068-1.094 0.005s-0.733-0.219-1.11-0.47c-0.349-0.226-0.631-0.484-0.847-0.773s-0.386-0.603-0.509-0.943l1.419-0.732c0.067 0.249 0.169 0.472 0.307 0.669s0.288 0.36 0.45 0.487c0.228 0.174 0.463 0.276 0.706 0.307s0.494 0.012 0.752-0.058c0.239-0.064 0.443-0.156 0.614-0.276s0.316-0.293 0.437-0.517c0.131-0.227 0.203-0.446 0.216-0.658s-0.012-0.431-0.073-0.66c-0.059-0.219-0.143-0.404-0.253-0.556s-0.267-0.291-0.472-0.417c-0.214-0.124-0.409-0.205-0.585-0.243s-0.368-0.072-0.579-0.101l-1.063-0.147c-0.255-0.038-0.54-0.106-0.854-0.203s-0.578-0.208-0.793-0.331c-0.293-0.177-0.52-0.38-0.683-0.609s-0.28-0.477-0.352-0.745c-0.109-0.408-0.138-0.792-0.085-1.153s0.163-0.686 0.33-0.976c0.124-0.214 0.299-0.427 0.525-0.636s0.507-0.386 0.842-0.529l-0.356-1.328 1.104-0.296 0.352 1.313c0.194-0.031 0.413-0.041 0.655-0.032s0.501 0.068 0.775 0.176c0.239 0.096 0.465 0.222 0.677 0.378s0.403 0.329 0.571 0.519l-1.032 1.044zM38.697 4.189c1.251 0.718 2.568 0.365 2.568 0.365l-0.846-3.158-3.151 0.844c0 0 0.177 1.231 1.428 1.949v0zM42.65 18.424c-0.718 1.251-0.365 2.568-0.365 2.568l3.158-0.846-0.844-3.151c0 0-1.231 0.177-1.949 1.428v0zM8.205 27.792c-1.251-0.718-2.568-0.365-2.568-0.365l0.846 3.158 3.151-0.844c0 0-0.177-1.231-1.428-1.949v0zM4.251 13.558c0.718-1.251 0.365-2.568 0.365-2.568l-3.158 0.846 0.844 3.151c0 0 1.231-0.177 1.949-1.428z"></path>
</svg>
