<!-- Generated by IcoMoon.io -->
<svg version="1.1" xmlns="http://www.w3.org/2000/svg" width="39" height="32" viewBox="0 0 39 32">
<title>megafon</title>
<path d="M19.934 9.803v9.065h1.016v-9.573h-1.016v0.508zM35.048 11.497v0-0.19l0.829-0.689 0.186 0.035v7.213l-0.212 0.045-0.804-0.651v-0.217l3.598-0.767-0.804 0.994v-6.095l0.829 0.999-3.623-0.676zM35.048 10.463l3.81 0.711v6.095l-3.81 0.813v-7.619zM34.596 1.304c0.215-0.175 0.194-0.183 0.289 0.032 0.054 0.123 0.086 0.256 0.097 0.33l-0.005-0.073v25.338l0.004-0.064c-0.012 0.096-0.047 0.261-0.107 0.415-0.052 0.134-0.107 0.212-0.123 0.22 0.016-0.008-0.006-0.013-0.142-0.131-0.31-0.268-1.749-1.564-2.094-1.869-1.027-0.907-1.949-1.678-2.914-2.417-4.315-3.307-8.509-5.207-12.825-5.207-4.696 0-8.228 0.011-10.759 0.028-0.887 0.006-1.585 0.013-2.116 0.019-0.319 0.004-0.512 0.007-0.599 0.009-0.041 0.003-0.055 0.004-0.078 0.005-0.287 0.015-0.633-0.010-0.948-0.104-0.54-0.16-0.818-0.459-0.818-1.016 0-0.477-0.007-1.052-0.019-1.705-0.009-0.448-0.020-0.922-0.033-1.41-0.011-0.427-0.024-0.841-0.036-1.227-0.007-0.231-0.013-0.402-0.016-0.495l-0.006-0.063c-0.001-0.005-0.003-0.024-0.006-0.055-0.024-0.262-0.003-0.565 0.094-0.838 0.182-0.514 0.587-0.806 1.404-0.806h2.219c3.010 0 3.010 0 11.525 0 4.351 0 8.599-1.789 12.966-4.897 0.975-0.694 1.909-1.419 2.936-2.263 0.42-0.345 1.833-1.531 2.111-1.757v0zM33.956 0.516c-0.287 0.233-1.703 1.422-2.116 1.761-1.011 0.83-1.927 1.542-2.88 2.22-4.211 2.997-8.276 4.709-12.377 4.709h-13.744c-1.251 0-2.036 0.566-2.361 1.481-0.154 0.433-0.185 0.874-0.148 1.27 0.005 0.055 0.010 0.097 0.015 0.124l-0.006-0.063c0.003 0.092 0.009 0.262 0.016 0.492 0.012 0.384 0.024 0.796 0.036 1.222 0.013 0.486 0.024 0.957 0.033 1.402 0.012 0.647 0.019 1.216 0.019 1.685 0 1.057 0.608 1.712 1.545 1.99 0.445 0.132 0.897 0.165 1.29 0.144 0.037-0.002 0.065-0.004 0.083-0.006 0.047 0 0.237-0.003 0.553-0.007 0.529-0.007 1.225-0.013 2.11-0.019 2.529-0.018 6.058-0.028 10.752-0.028 4.049 0 8.053 1.814 12.207 4.997 0.944 0.723 1.849 1.479 2.859 2.372 0.338 0.299 1.783 1.601 2.102 1.876 0.418 0.362 0.861 0.471 1.261 0.271 0.293-0.147 0.482-0.415 0.616-0.762 0.096-0.247 0.146-0.484 0.168-0.655l0.004-0.064v-25.338l-0.005-0.073c-0.023-0.157-0.075-0.37-0.172-0.592-0.337-0.769-1.054-1.066-1.859-0.413v0zM7.456 18.881l4.393 12.773h6.786l-3.504-13.573-0.984 0.254 3.34 12.938 0.492-0.635h-5.768l0.48 0.343-4.275-12.431-0.961 0.33z"></path>
</svg>
