<!-- Generated by IcoMoon.io -->
<svg version="1.1" xmlns="http://www.w3.org/2000/svg" width="32" height="32" viewBox="0 0 32 32">
<title>minutes</title>
<path d="M17.707 18.553c-0.001 0-0.002 0-0.004 0-0.173 0-0.33-0.070-0.444-0.183l-5.9-5.919c-0.094-0.11-0.152-0.253-0.152-0.41 0-0.348 0.283-0.631 0.631-0.631 0.157 0 0.301 0.057 0.411 0.152l5.918 5.918c0.115 0.114 0.187 0.273 0.187 0.448 0 0.349-0.283 0.631-0.631 0.631-0.001 0-0.003 0-0.004 0z"></path>
<path d="M14.028 18.553c-0.001 0-0.002 0-0.004 0-0.348 0-0.631-0.283-0.631-0.631 0-0.175 0.071-0.334 0.187-0.448l8.835-8.835c0.11-0.094 0.253-0.152 0.41-0.152 0.349 0 0.631 0.283 0.631 0.631 0 0.157-0.057 0.301-0.152 0.411l-8.834 8.834c-0.113 0.115-0.268 0.187-0.441 0.189z"></path>
<path d="M15.997 32c-8.832-0.004-15.991-7.164-15.991-15.997 0-8.835 7.162-15.997 15.997-15.997 8.833 0 15.993 7.158 15.997 15.99-0.007 8.836-7.168 15.996-16.002 16.004zM15.997 0.947c-8.309 0.004-15.044 6.74-15.044 15.050 0 8.312 6.738 15.050 15.050 15.050s15.050-6.738 15.050-15.050c-0.011-8.31-6.746-15.043-15.056-15.050z"></path>
<path d="M16.205 3.376v0c-0.259 0-0.467-0.145-0.454-0.404l0.082-2.48c0.009-0.24 0.206-0.431 0.448-0.431 0.016 0 0.031 0.001 0.046 0.002 0.253 0.017 0.453 0.227 0.453 0.485 0 0.007-0 0.014-0 0.021l-0.101 2.441c-0.006 0.252-0.221 0.366-0.473 0.366z"></path>
<path d="M16.205 31.773v0c-0.259 0-0.467-0.145-0.454-0.404l0.101-2.48c0.009-0.24 0.206-0.431 0.448-0.431 0.016 0 0.031 0.001 0.046 0.002 0.253 0.017 0.453 0.227 0.453 0.485 0 0.007-0 0.014-0 0.021l-0.101 2.441c-0.025 0.252-0.24 0.366-0.492 0.366z"></path>
<path d="M30.833 16.628v0l-2.524-0.032c-0.004 0-0.008 0-0.013 0-0.244 0-0.442-0.198-0.442-0.442 0-0.005 0-0.009 0-0.013 0.013-0.243 0.214-0.436 0.46-0.436 0.011 0 0.023 0 0.034 0.001l2.523 0.107c0.015-0.002 0.033-0.003 0.051-0.003 0.227 0 0.41 0.184 0.41 0.41s-0.184 0.41-0.41 0.41c-0.018 0-0.036-0.001-0.053-0.003z"></path>
<path d="M3.067 16.628v0l-2.524-0.032c-0.004 0-0.008 0-0.013 0-0.244 0-0.442-0.198-0.442-0.442 0-0.005 0-0.009 0-0.013 0.013-0.243 0.214-0.436 0.46-0.436 0.011 0 0.023 0 0.034 0.001l2.523 0.107c0.015-0.002 0.033-0.003 0.051-0.003 0.227 0 0.41 0.184 0.41 0.41s-0.184 0.41-0.41 0.41c-0.018 0-0.036-0.001-0.053-0.003z"></path>
<path d="M6.91 6.822c-0.001 0-0.001 0-0.002 0-0.091 0-0.174-0.039-0.231-0.101l-1.71-1.855c-0.056-0.058-0.091-0.137-0.091-0.224 0-0.177 0.144-0.321 0.321-0.321 0.090 0 0.172 0.037 0.23 0.097l1.71 1.893c0.052 0.056 0.084 0.132 0.084 0.215 0 0.174-0.141 0.316-0.316 0.316-0.001 0-0.002 0-0.002 0z"></path>
<path d="M26.99 26.901c-0.001 0-0.001 0-0.002 0-0.091 0-0.174-0.039-0.231-0.101l-1.71-1.855c-0.044-0.054-0.070-0.123-0.070-0.199 0-0.174 0.141-0.316 0.316-0.316 0.083 0 0.159 0.032 0.216 0.085l1.71 1.855c0.052 0.056 0.084 0.132 0.084 0.215 0 0.174-0.141 0.316-0.316 0.316-0.001 0-0.002 0-0.002 0z"></path>
<path d="M24.743 7.535c-0.001 0-0.002 0-0.002 0-0.174 0-0.316-0.141-0.316-0.316 0-0.092 0.040-0.176 0.103-0.233l1.855-1.71c0.054-0.044 0.123-0.070 0.199-0.070 0.174 0 0.316 0.141 0.316 0.316 0 0.083-0.032 0.159-0.085 0.216l-1.855 1.71c-0.056 0.054-0.131 0.087-0.214 0.088z"></path>
<path d="M5.111 27.166c-0.001 0-0.002 0-0.002 0-0.174 0-0.316-0.141-0.316-0.316 0-0.092 0.040-0.176 0.103-0.233l1.856-1.71c0.058-0.062 0.14-0.1 0.23-0.1 0.174 0 0.316 0.141 0.316 0.316 0 0.099-0.045 0.187-0.116 0.245l-1.862 1.717c-0.055 0.050-0.128 0.081-0.208 0.082z"></path>
</svg>
