<!-- Generated by IcoMoon.io -->
<svg version="1.1" xmlns="http://www.w3.org/2000/svg" width="32" height="32" viewBox="0 0 32 32">
<title>money</title>
<path d="M4.388 27.075c-0.153 0-0.345-0.038-0.46-0.115-0.23-0.115-0.383-0.345-0.46-0.575l-3.372-12.57c-0.077-0.23-0.038-0.498 0.115-0.728s0.345-0.383 0.575-0.46l26.596-7.128c0.23-0.077 0.498-0.038 0.728 0.077s0.383 0.345 0.46 0.575l3.372 12.57c0.077 0.23 0.038 0.498-0.115 0.728-0.115 0.23-0.345 0.383-0.575 0.46l-26.596 7.128c-0.077 0.038-0.153 0.038-0.268 0.038zM27.65 5.844c-0.038 0-0.115 0-0.153 0.038l-26.596 7.128c-0.153 0.038-0.268 0.153-0.345 0.268s-0.115 0.307-0.038 0.422l3.372 12.57c0.038 0.153 0.153 0.268 0.268 0.345s0.307 0.115 0.422 0.038l26.596-7.128c0.153-0.038 0.268-0.153 0.345-0.268s0.115-0.307 0.038-0.422l-3.372-12.57c-0.038-0.153-0.153-0.268-0.268-0.345-0.077-0.038-0.192-0.077-0.268-0.077z"></path>
<path d="M15.502 11.363l0.268 1.035c0.307-0.077 0.958-0.115 1.763 0.23l-0.383 1.303c-0.383-0.192-0.843-0.307-1.265-0.192-0.307 0.077-0.498 0.23-0.613 0.383-0.077 0.153-0.153 0.307-0.077 0.498 0.038 0.192 0.153 0.268 0.307 0.345 0.192 0.115 0.46 0.115 0.805 0.153l0.651 0.077c0.383 0.077 0.805 0.115 1.15 0.345 0.422 0.268 0.69 0.651 0.843 1.15 0.192 0.651 0.077 1.265-0.153 1.686s-0.575 0.766-1.073 0.996l0.307 1.188-0.92 0.268-0.307-1.15c-0.422 0.077-0.843 0.115-1.341 0-0.422-0.077-0.766-0.23-1.111-0.46l0.46-1.341c0.115 0.077 0.422 0.23 0.805 0.345 0.307 0.077 0.651 0.115 1.035 0.038 0.23-0.077 0.46-0.192 0.651-0.422 0.115-0.153 0.192-0.345 0.115-0.613s-0.23-0.383-0.46-0.46c-0.192-0.077-0.383-0.077-0.805-0.115l-0.422-0.038c-0.422-0.038-0.843-0.115-1.226-0.345-0.422-0.23-0.652-0.537-0.766-1.035-0.153-0.613-0.077-1.226 0.192-1.686 0.192-0.345 0.575-0.69 0.996-0.881l-0.268-1.035 0.843-0.268z"></path>
<path d="M26.347 8.565c0.537 0.307 1.188 0.383 1.801 0.268l-0.613-2.184-2.184 0.537c0.115 0.575 0.498 1.073 0.996 1.38v0z"></path>
<path d="M28.877 17.686c-0.307 0.537-0.383 1.188-0.23 1.801l2.184-0.575-0.575-2.184c-0.575 0.115-1.073 0.46-1.38 0.958v0 0z"></path>
<path d="M5.691 24.010c-0.537-0.307-1.188-0.383-1.801-0.268l0.613 2.223 2.184-0.575c-0.115-0.575-0.46-1.073-0.996-1.38v0 0z"></path>
<path d="M3.162 14.85c0.307-0.537 0.383-1.188 0.268-1.801l-2.184 0.575 0.575 2.184c0.537-0.077 1.035-0.46 1.341-0.958z"></path>
</svg>
