<!-- Generated by IcoMoon.io -->
<svg version="1.1" xmlns="http://www.w3.org/2000/svg" width="45" height="32" viewBox="0 0 45 32">
<title>people</title>
<path d="M22.45 16.329c4.531 0 8.217-3.663 8.217-8.166 0-4.501-3.686-8.163-8.217-8.163-4.528 0-8.212 3.662-8.212 8.163 0 4.503 3.684 8.166 8.212 8.166v0zM22.45 1.175c3.879 0 7.035 3.135 7.035 6.988 0 3.855-3.156 6.991-7.035 6.991-3.876 0-7.030-3.136-7.030-6.991 0-3.853 3.154-6.988 7.030-6.988v0zM34.841 13.564c-1.124 0-2.177-0.374-3.046-1.083-0.251-0.206-0.625-0.17-0.832 0.081s-0.17 0.621 0.082 0.827c1.067 0.87 2.415 1.349 3.796 1.349 3.311 0 6.005-2.676 6.005-5.966s-2.693-5.964-6.005-5.964c-1.383 0-2.73 0.479-3.797 1.348-0.251 0.205-0.288 0.576-0.081 0.827s0.58 0.287 0.832 0.082c0.854-0.698 1.937-1.082 3.046-1.082 2.659 0 4.822 2.148 4.822 4.789s-2.164 4.79-4.822 4.79v0zM30.95 20.593c-2.135-3.537-6.618-3.094-6.745-3.076h-3.652c-0.161-0.003-3.768-0.097-5.887 2.931-1.175 1.675-2.901 8.102-3.508 10.776-0.073 0.317 0.128 0.631 0.446 0.703 0.318 0.073 0.635-0.127 0.706-0.444 0.638-2.808 2.322-8.931 3.326-10.363 1.744-2.491 4.851-2.422 4.896-2.428l3.735-0.003c0.039-0.005 3.95-0.378 5.685 2.535 0.013 0.023 0.028 0.045 0.045 0.066 1.065 1.336 2.848 7.347 3.504 10.195 0.063 0.272 0.307 0.456 0.576 0.456 0.043 0 0.087-0.005 0.132-0.014 0.318-0.073 0.517-0.388 0.444-0.705-0.515-2.233-2.343-8.867-3.705-10.629v0zM10.057 14.739c1.382 0 2.731-0.479 3.798-1.349 0.252-0.206 0.289-0.577 0.082-0.827s-0.579-0.287-0.832-0.081c-0.869 0.708-1.923 1.083-3.049 1.083-2.659 0-4.822-2.149-4.822-4.79s2.163-4.789 4.822-4.789c1.126 0 2.179 0.374 3.046 1.082 0.253 0.205 0.626 0.168 0.832-0.082s0.17-0.621-0.082-0.827c-1.066-0.87-2.414-1.348-3.796-1.348-3.31 0-6.004 2.675-6.004 5.964s2.693 5.966 6.004 5.966v0zM42.4 22.991c-0.63-2.823-1.266-4.707-1.89-5.599-1.553-2.223-4.215-2.154-4.305-2.151l-2.541 0.004c-0.128-0.017-3.18-0.318-4.814 1.981-0.188 0.265-0.125 0.632 0.142 0.819s0.635 0.125 0.824-0.141c1.227-1.727 3.696-1.495 3.784-1.488h2.627c0.020-0.015 2.123-0.056 3.314 1.647 0.368 0.526 0.963 1.853 1.706 5.182 0.061 0.273 0.306 0.461 0.577 0.461 0.043 0 0.085-0.005 0.128-0.014 0.319-0.070 0.52-0.384 0.45-0.7v0zM15.227 18.125c0.167 0.28 0.529 0.373 0.809 0.206 0.281-0.165 0.374-0.526 0.208-0.805-1.564-2.624-4.87-2.297-4.945-2.285h-2.584c-0.107 0-2.774-0.074-4.327 2.151-0.627 0.897-1.263 2.781-1.889 5.599-0.070 0.317 0.132 0.631 0.45 0.7 0.043 0.009 0.086 0.014 0.128 0.014 0.271 0 0.516-0.187 0.577-0.461 0.575-2.592 1.181-4.432 1.705-5.181 1.178-1.688 3.225-1.647 3.336-1.647l2.667-0.003c0.028-0.003 2.694-0.254 3.865 1.712v0z"></path>
</svg>
