<!-- Generated by IcoMoon.io -->
<svg version="1.1" xmlns="http://www.w3.org/2000/svg" width="32" height="32" viewBox="0 0 32 32">
<title>phone-ok</title>
<path d="M16.259 30.352c-0.905 0-1.681-0.776-1.681-1.681s0.776-1.681 1.681-1.681 1.681 0.776 1.681 1.681-0.776 1.681-1.681 1.681zM16.259 27.96c-0.388 0-0.711 0.323-0.711 0.711s0.323 0.711 0.711 0.711 0.711-0.323 0.711-0.711-0.323-0.711-0.711-0.711z"></path>
<path d="M23.758 0.937c0.194 0 0.388 0.194 0.388 0.388v29.285c0 0.194-0.194 0.388-0.388 0.388h-15.063c-0.194 0-0.388-0.194-0.388-0.388v-29.285c0-0.194 0.194-0.388 0.388-0.388h15.063zM23.758-0.032h-15.063c-0.776 0-1.358 0.646-1.358 1.358v29.285c0 0.776 0.646 1.358 1.358 1.358h15.063c0.776 0 1.358-0.646 1.358-1.358v-29.285c0.065-0.776-0.582-1.358-1.358-1.358v0z"></path>
<path d="M8.889 5.010v20.687h14.869v-20.687h-14.869zM21.624 12.186l-6.012 8.21c-0.065 0.065-0.259 0.129-0.388 0.129 0 0 0 0 0 0-0.129 0-0.259-0.065-0.388-0.129l-2.651-3.362c-0.194-0.194-0.129-0.517 0.065-0.646 0.194-0.194 0.517-0.129 0.711 0.065l2.263 2.844 5.624-7.693c0.129-0.194 0.453-0.259 0.646-0.129 0.259 0.194 0.323 0.453 0.129 0.711z"></path>
</svg>
