<!-- Generated by IcoMoon.io -->
<svg version="1.1" xmlns="http://www.w3.org/2000/svg" width="32" height="32" viewBox="0 0 32 32">
<title>phone</title>
<path d="M0 6c0-0.479 0.221-1.070 0.664-1.773s0.971-1.362 1.586-1.977c0.615-0.615 1.273-1.143 1.977-1.586s1.294-0.664 1.773-0.664c0.615 0.302 1.354 0.995 2.219 2.078s1.609 2.141 2.234 3.172c0.625 1.031 1.141 1.948 1.547 2.75 0 0.333-0.5 1.167-1.5 2.5s-1.5 2.167-1.5 2.5c0.323 0.969 1.096 2.185 2.32 3.648s2.568 2.807 4.031 4.031c1.464 1.224 2.68 1.997 3.648 2.32 0.333 0 1.167-0.5 2.5-1.5s2.167-1.5 2.5-1.5c1 0.5 2.333 1.375 4 2.625s3 2.375 4 3.375c0 0.479-0.221 1.070-0.664 1.773s-0.971 1.362-1.586 1.977c-0.615 0.615-1.273 1.143-1.977 1.586s-1.294 0.664-1.773 0.664c-1.625-0.323-3.375-0.966-5.25-1.93s-3.706-2.122-5.492-3.477c-1.786-1.354-3.536-2.888-5.25-4.602s-3.247-3.464-4.602-5.25c-1.354-1.786-2.513-3.617-3.477-5.492s-1.607-3.625-1.93-5.25v0z"></path>
</svg>
