<!-- Generated by IcoMoon.io -->
<svg version="1.1" xmlns="http://www.w3.org/2000/svg" width="32" height="32" viewBox="0 0 32 32">
<title>phonecirclebig</title>
<path d="M9.869 11.85c0-0.206 0.095-0.46 0.286-0.762s0.418-0.586 0.682-0.85c0.264-0.264 0.547-0.491 0.85-0.682s0.556-0.286 0.762-0.286c0.264 0.13 0.582 0.428 0.954 0.893s0.692 0.92 0.961 1.364c0.269 0.443 0.49 0.837 0.665 1.182 0 0.143-0.215 0.502-0.645 1.075s-0.645 0.931-0.645 1.075c0.139 0.416 0.471 0.939 0.998 1.569s1.104 1.207 1.733 1.733c0.629 0.526 1.152 0.859 1.569 0.998 0.143 0 0.502-0.215 1.075-0.645s0.931-0.645 1.075-0.645c0.43 0.215 1.003 0.591 1.72 1.128s1.29 1.021 1.72 1.451c0 0.206-0.095 0.46-0.285 0.762s-0.418 0.586-0.682 0.85c-0.264 0.264-0.547 0.491-0.85 0.682s-0.556 0.285-0.762 0.285c-0.699-0.139-1.451-0.415-2.257-0.83s-1.593-0.912-2.361-1.495c-0.768-0.582-1.52-1.242-2.257-1.978s-1.396-1.489-1.978-2.257c-0.582-0.768-1.080-1.555-1.495-2.361s-0.691-1.558-0.83-2.257v0zM16 31.85c8.754 0 15.85-7.096 15.85-15.85s-7.096-15.85-15.85-15.85c-8.754 0-15.85 7.096-15.85 15.85s7.096 15.85 15.85 15.85v0zM16 30.953c-8.258 0-14.953-6.695-14.953-14.953s6.695-14.953 14.953-14.953c8.258 0 14.953 6.695 14.953 14.953s-6.695 14.953-14.953 14.953v0z"></path>
</svg>
