<!-- Generated by IcoMoon.io -->
<svg version="1.1" xmlns="http://www.w3.org/2000/svg" width="32" height="32" viewBox="0 0 32 32">
<title>print</title>
<path d="M29.721 26.756h-5.491v-1.785h5.491c0.273-0.034 0.482-0.265 0.482-0.545 0-0.016-0.001-0.032-0.002-0.047l0-14.879c0.001-0.014 0.002-0.029 0.002-0.045 0-0.28-0.209-0.511-0.48-0.545l-27.459-0c-0.273 0.034-0.482 0.265-0.482 0.545 0 0.016 0.001 0.032 0.002 0.047l-0 14.865c-0.001 0.014-0.002 0.029-0.002 0.045 0 0.28 0.209 0.511 0.48 0.545l5.494 0v1.785h-5.491c-1.259-0.038-2.265-1.068-2.265-2.333 0-0.015 0-0.030 0-0.044l-0-14.865c-0-0.017-0.001-0.036-0.001-0.056 0-1.262 1.008-2.289 2.263-2.319l27.459-0c1.258 0.030 2.266 1.057 2.266 2.319 0 0.020-0 0.039-0.001 0.058l0 14.865c0 0.017 0.001 0.036 0.001 0.056 0 1.265-1.006 2.295-2.262 2.333zM22.857 32.041h-13.728c-1.251 0-2.265-1.014-2.265-2.265v-8.237h1.785v8.237c0 0.265 0.215 0.48 0.48 0.48 0 0 0 0 0 0h13.728c0 0 0 0 0 0 0.265 0 0.48-0.215 0.48-0.48 0 0 0 0 0 0v-8.237h1.785v8.237c0 1.251-1.014 2.265-2.265 2.265zM4.324 20.606h23.338v1.785h-23.338v-1.785zM26.495 7.756h-1.785v-5.491c-0.029-0.241-0.231-0.426-0.477-0.426-0.001 0-0.002 0-0.003 0h-16.473c0 0 0 0 0 0-0.265 0-0.48 0.215-0.48 0.48 0 0 0 0 0 0v5.491h-1.785v-5.491c0-1.251 1.014-2.265 2.265-2.265h16.474c1.251 0 2.265 1.014 2.265 2.265v5.491zM26.509 14.401c0 0.758-0.615 1.373-1.373 1.373s-1.373-0.615-1.373-1.373c0-0.758 0.615-1.373 1.373-1.373s1.373 0.615 1.373 1.373zM11.188 24.436h9.61v1.373h-9.61v-1.373zM11.188 27.236h9.61v1.373h-9.61v-1.373z"></path>
</svg>
