<!-- Generated by IcoMoon.io -->
<svg version="1.1" xmlns="http://www.w3.org/2000/svg" width="20" height="32" viewBox="0 0 20 32">
<title>question</title>
<path d="M7.168 23.082v-2.667c0-0.787 0.059-1.443 0.177-1.967s0.295-0.998 0.531-1.421c0.236-0.423 0.553-0.831 0.951-1.224s0.892-0.867 1.482-1.421c0.472-0.437 0.944-0.882 1.416-1.333s0.9-0.918 1.283-1.399c0.383-0.481 0.701-0.991 0.951-1.53s0.376-1.144 0.376-1.814c0-0.67-0.125-1.29-0.376-1.858s-0.583-1.056-0.996-1.464c-0.413-0.408-0.907-0.729-1.482-0.962s-1.187-0.35-1.836-0.35c-1.445 0-2.618 0.452-3.518 1.355s-1.438 2.084-1.615 3.541l-4.513-0.437c0.383-2.536 1.453-4.525 3.208-5.967s3.931-2.164 6.527-2.164c1.239 0 2.397 0.182 3.473 0.546s2.013 0.889 2.81 1.574c0.796 0.685 1.423 1.53 1.881 2.536s0.686 2.149 0.686 3.432c0 1.107-0.162 2.076-0.487 2.907s-0.782 1.61-1.372 2.339l-2.655 2.71-0.442 0.393c-0.472 0.437-0.848 0.809-1.128 1.115s-0.501 0.627-0.664 0.962c-0.162 0.335-0.273 0.707-0.332 1.115s-0.088 0.918-0.088 1.53v1.924h-4.248zM6.327 29.115c0-0.787 0.288-1.464 0.863-2.033s1.261-0.852 2.058-0.852c0.796 0 1.482 0.284 2.058 0.852s0.863 1.246 0.863 2.033c0 0.787-0.288 1.464-0.863 2.033s-1.261 0.852-2.058 0.852c-0.796 0-1.482-0.284-2.058-0.852s-0.863-1.246-0.863-2.033v0z"></path>
</svg>
