<!-- Generated by IcoMoon.io -->
<svg version="1.1" xmlns="http://www.w3.org/2000/svg" width="31" height="32" viewBox="0 0 31 32">
<title>rebtelicon</title>
<path d="M0 0v32h30.72v-32h-30.72zM21.76 24.96h-5.997c-2.202 0-3.84-0.403-4.851-1.395-0.957-0.913-1.552-2.199-1.552-3.623 0-0.065 0.001-0.13 0.004-0.194-0-2.333 1.094-3.831 3.283-4.714l-2.957-7.354h3.462l2.605 7.040h2.803v-7.040h3.2v17.28zM13.651 17.92c-0.536 0.453-0.873 1.125-0.873 1.876 0 0.043 0.001 0.085 0.003 0.127-0.001 0.017-0.002 0.044-0.002 0.071 0 0.717 0.334 1.355 0.854 1.769 0.573 0.414 1.284 0.661 2.053 0.661 0.122 0 0.242-0.006 0.361-0.018l2.545 0.001v-5.12h-2.266c-1.216-0.006-2.099 0.122-2.675 0.634z"></path>
</svg>
