<!-- Generated by IcoMoon.io -->
<svg version="1.1" xmlns="http://www.w3.org/2000/svg" width="63" height="32" viewBox="0 0 63 32">
<title>rebtelapps</title>
<path d="M21.714 16.457h1.829c0.126 0 0.229-0.102 0.229-0.229s-0.102-0.229-0.229-0.229h-1.829c-0.126 0-0.229 0.102-0.229 0.229s0.102 0.229 0.229 0.229v0zM27.657 16.457h1.829c0.126 0 0.229-0.102 0.229-0.229s-0.102-0.229-0.229-0.229h-1.829c-0.126 0-0.229 0.102-0.229 0.229s0.102 0.229 0.229 0.229v0zM33.6 16.457h1.829c0.126 0 0.229-0.102 0.229-0.229s-0.102-0.229-0.229-0.229h-1.829c-0.126 0-0.229 0.102-0.229 0.229s0.102 0.229 0.229 0.229v0zM39.543 16.457h1.829c0.126 0 0.229-0.102 0.229-0.229s-0.102-0.229-0.229-0.229h-1.829c-0.126 0-0.229 0.102-0.229 0.229s0.102 0.229 0.229 0.229v0zM0.731 2.742v0 26.516c0 1.112 0.899 2.011 2.011 2.011h12.801c1.111 0 2.011-0.9 2.011-2.011v-26.516c0-1.112-0.899-2.011-2.011-2.011h-12.801c-1.111 0-2.011 0.9-2.011 2.011v0zM0 2.742c0-1.514 1.228-2.742 2.743-2.742h12.801c1.515 0 2.743 1.225 2.743 2.742v26.516c0 1.514-1.228 2.742-2.742 2.742h-12.801c-1.515 0-2.743-1.225-2.743-2.742v-26.516zM1.6 4.114v21.029h15.086v-21.029h-15.086zM9.842 15.582h-0.714c-0.34 0-0.593 0.081-0.759 0.243s-0.249 0.384-0.249 0.667c0 0.26 0.082 0.47 0.245 0.63s0.392 0.24 0.686 0.24h0.79v-1.78zM7.234 12.492h0.993l0.748 2.237h0.867v-2.237h0.943v5.719h-1.81c-0.631 0-1.095-0.161-1.391-0.483s-0.444-0.738-0.444-1.25c0-0.759 0.314-1.282 0.942-1.568l-0.848-2.419zM9.249 29.552c0.819 0 1.477-0.683 1.477-1.519s-0.658-1.519-1.477-1.519c-0.819 0-1.477 0.683-1.477 1.519s0.658 1.519 1.477 1.519v0zM9.249 28.82c-0.409 0-0.746-0.35-0.746-0.787s0.337-0.787 0.746-0.787c0.409 0 0.746 0.35 0.746 0.787s-0.337 0.787-0.746 0.787v0zM45.531 2.742v0 26.516c0 1.112 0.899 2.011 2.011 2.011h12.801c1.111 0 2.011-0.9 2.011-2.011v-26.516c0-1.112-0.899-2.011-2.011-2.011h-12.801c-1.111 0-2.011 0.9-2.011 2.011v0zM44.8 2.742c0-1.514 1.228-2.742 2.742-2.742h12.801c1.515 0 2.742 1.225 2.742 2.742v26.516c0 1.514-1.228 2.742-2.742 2.742h-12.801c-1.515 0-2.742-1.225-2.742-2.742v-26.516zM46.4 4.114v21.029h15.086v-21.029h-15.086zM54.642 15.582h-0.714c-0.34 0-0.593 0.081-0.759 0.243s-0.249 0.384-0.249 0.667c0 0.26 0.082 0.47 0.245 0.63s0.392 0.24 0.686 0.24h0.79v-1.78zM52.034 12.492h0.993l0.748 2.237h0.867v-2.237h0.943v5.719h-1.81c-0.631 0-1.095-0.161-1.391-0.483s-0.444-0.738-0.444-1.25c0-0.759 0.314-1.282 0.942-1.568l-0.848-2.419zM54.049 29.552c0.819 0 1.477-0.683 1.477-1.519s-0.658-1.519-1.477-1.519c-0.819 0-1.477 0.683-1.477 1.519s0.658 1.519 1.477 1.519v0zM54.049 28.82c-0.409 0-0.746-0.35-0.746-0.787s0.337-0.787 0.746-0.787c0.409 0 0.746 0.35 0.746 0.787s-0.337 0.787-0.746 0.787v0z"></path>
</svg>
