<!-- Generated by IcoMoon.io -->
<svg version="1.1" xmlns="http://www.w3.org/2000/svg" width="28" height="32" viewBox="0 0 28 32">
<title>recite</title>
<path d="M9.398 2.010c-0.056-0.112-0.168-0.279-0.279-0.335-0.112-0.112-0.223-0.112-0.279-0.168v1.508c0.335 0.112 0.614 0.279 0.782 0.447 0.223 0.223 0.335 0.503 0.335 0.838 0 0.614-0.391 1.229-1.117 1.34v0.614h-0.391v-0.614c-0.391 0-0.67-0.168-0.838-0.335-0.223-0.223-0.335-0.503-0.391-0.782l0.503-0.112c0.056 0.223 0.112 0.447 0.279 0.558 0.168 0.168 0.391 0.223 0.503 0.223v-1.843c-0.168-0.056-0.503-0.223-0.726-0.447s-0.335-0.447-0.335-0.726c0-0.614 0.447-1.061 1.061-1.117v-0.558h0.391v0.558c0.112 0 0.335 0.056 0.503 0.168s0.335 0.279 0.447 0.503l-0.447 0.279zM8.449 1.508c-0.335 0.056-0.558 0.335-0.558 0.67 0 0.168 0.056 0.279 0.168 0.391s0.223 0.168 0.391 0.223v-1.284zM8.84 5.194c0.391-0.112 0.614-0.503 0.614-0.838 0-0.279-0.112-0.447-0.223-0.503-0.112-0.112-0.279-0.168-0.391-0.223v1.564z"></path>
<path d="M12.526 9.494h10.052v1.117h-10.052v-1.117z"></path>
<path d="M5.266 13.962h17.312v1.117h-17.312v-1.117z"></path>
<path d="M5.266 19.546h17.312v1.117h-17.312v-1.117z"></path>
<path d="M5.266 16.754h17.312v1.117h-17.312v-1.117z"></path>
<path d="M5.266 22.339h17.312v1.117h-17.312v-1.117z"></path>
<path d="M0.239 32v-32h27.365v32l-0.949-0.838c-0.894-0.782-1.955-1.731-2.346-2.010-0.168 0.168-0.503 0.558-0.726 0.838-0.503 0.67-1.005 1.284-1.675 1.284-0.726 0-1.284-0.67-1.787-1.284-0.223-0.279-0.726-0.894-0.894-0.894s-0.614 0.558-0.894 0.894c-0.503 0.67-1.061 1.284-1.731 1.284-0.726 0-1.284-0.67-1.787-1.284-0.223-0.279-0.726-0.894-0.894-0.894-0.168 0.056-0.614 0.558-0.838 0.894-0.503 0.67-1.005 1.34-1.731 1.34s-1.229-0.67-1.731-1.284c-0.223-0.279-0.67-0.838-0.894-0.894-0.168 0-0.614 0.558-0.894 0.894-0.503 0.67-1.061 1.284-1.731 1.284-0.726 0-1.396-0.726-2.010-1.452-0.223-0.223-0.503-0.558-0.67-0.67-0.391 0.279-1.452 1.173-2.29 2.010l-0.894 0.782zM8.728 27.979c0.726 0 1.229 0.67 1.731 1.284 0.223 0.279 0.67 0.838 0.894 0.894 0.168-0.056 0.614-0.558 0.838-0.894 0.503-0.67 1.005-1.34 1.731-1.34s1.229 0.67 1.787 1.284c0.223 0.279 0.726 0.894 0.894 0.894s0.614-0.558 0.894-0.894c0.503-0.67 1.061-1.284 1.731-1.284 0.726 0 1.284 0.67 1.787 1.284 0.223 0.279 0.726 0.894 0.894 0.894 0.168-0.056 0.558-0.558 0.782-0.894 0.503-0.67 1.005-1.284 1.675-1.284 0.223 0 0.391 0 2.122 1.508v-28.314h-25.131v28.314c1.564-1.452 1.899-1.508 2.122-1.452 0.503 0 0.949 0.503 1.508 1.117 0.279 0.335 0.894 1.061 1.117 1.061 0.168 0 0.614-0.558 0.894-0.894 0.503-0.614 1.005-1.284 1.731-1.284z"></path>
</svg>
