<!-- Generated by IcoMoon.io -->
<svg version="1.1" xmlns="http://www.w3.org/2000/svg" width="23" height="32" viewBox="0 0 23 32">
<title>rockon</title>
<path d="M9.759 32c-0.929 0-1.726 0-1.992-0.066-1.195-0.133-1.593-1.394-1.992-2.523-0.133-0.73-0.465-1.328-0.929-1.859-0.863-0.598-1.593-1.394-2.124-2.257-0.465-0.664-0.797-1.328-0.996-2.124-0.133-0.664-0.266-1.328-0.266-2.058l-1.129-14.075c-0.066-0.73-0.133-1.859-0.266-2.921-0.066-0.863-0.266-2.257 1.062-2.722 0.465-0.133 0.929-0.199 1.394-0.266h0.133c0.996-0.266 1.992 0.398 2.257 1.394 0 0.066 0 0.133 0.066 0.199 0.066 0.465 0.133 0.863 0.199 1.328s0.066 0.863 0.133 1.261l0.664 4.448c0.066-0.133 0.133-0.199 0.199-0.332 0.398-0.598 1.062-0.996 1.793-1.062 0.664-0.066 1.261 0.199 1.726 0.664 0.199 0.199 0.332 0.332 0.465 0.598 0.199-0.398 0.398-0.73 0.73-0.996 0.929-0.797 2.191-0.996 3.319-0.465 0.531 0.266 0.929 0.664 1.261 1.129l2.324-6.971c0.266-0.797 0.929-2.788 2.523-2.257l0.598 0.199c0.398 0.133 0.863 0.266 1.261 0.465 1.261 0.531 0.73 2.257 0.398 3.519-0.066 0.199-0.066 0.332-0.133 0.465-0.266 0.929-0.465 1.793-0.73 2.722-0.332 1.328-0.73 2.656-1.062 3.983-0.066 0.199-0.133 0.398-0.199 0.664-0.266 0.797-0.398 1.593-0.465 2.39 0 0.797 0.066 1.527 0.199 2.257 0.066 0.266 0.066 0.598 0.133 0.863 0.266 1.726 0.133 3.452-0.266 5.178-0.531 1.859-1.593 3.452-3.12 4.647-0.332 0.266-0.531 1.129-0.664 1.859-0.266 1.195-0.465 2.456-1.527 2.589-0.465 0.066-3.054 0.133-4.979 0.133zM3.054 2.124h-0.398c-0.398 0-0.797 0.133-1.195 0.199-0.531 0.199-0.531 0.73-0.398 1.66s0.199 2.257 0.266 2.988v0.398l1.062 13.61c0 0.598 0.133 1.261 0.266 1.859 0.199 0.664 0.465 1.261 0.863 1.793 0.531 0.797 1.195 1.461 1.925 1.992 0.664 0.664 1.129 1.461 1.261 2.39 0.332 1.062 0.664 1.793 1.129 1.859v0c0.664 0.066 6.108 0 6.772-0.066 0.332-0.066 0.531-1.062 0.664-1.793 0.199-0.996 0.398-1.992 0.996-2.456 1.328-1.062 2.257-2.456 2.722-4.116 0.398-1.527 0.465-3.187 0.266-4.78 0-0.266-0.066-0.598-0.133-0.863-0.133-0.797-0.199-1.66-0.199-2.456 0.066-0.929 0.266-1.793 0.531-2.656 0.066-0.199 0.133-0.398 0.133-0.598 0.332-1.328 0.73-2.656 1.062-4.050 0.266-0.929 0.465-1.793 0.73-2.722 0.066-0.133 0.066-0.332 0.133-0.465 0.199-0.73 0.598-2.191 0.199-2.39s-0.73-0.332-1.129-0.398l-0.598-0.199c-0.465-0.133-0.863 0.266-1.261 1.593l-3.917 11.884 0.133-3.519c0.066-1.129-0.863-2.058-1.992-2.124-0.531 0-0.996 0.133-1.394 0.531-0.531 0.531-0.863 1.261-0.929 1.992 0 0.332 0 0.73 0 1.062 0 0.531 0 1.062 0 1.527 0 0.066 0 0.133 0 0.199v0.664h-0.996c0-0.332 0-0.598 0-0.929 0-0.73 0-1.461 0-2.191 0-0.199 0-0.332 0-0.531v0c0-0.598-0.199-1.129-0.598-1.527-0.266-0.266-0.598-0.398-0.996-0.398-0.398 0.066-0.797 0.266-0.996 0.598-0.465 0.73-0.664 1.593-0.598 2.456v0.929l-0.996-0.598v-0.332l-1.129-6.705c-0.066-0.398-0.066-0.797-0.133-1.261s-0.066-0.863-0.133-1.261c-0.066-0.465-0.465-0.863-0.996-0.797 0.066 0 0.066 0 0 0z"></path>
<path d="M14.211 15.957l0.733-5.059 0.986 0.143-0.733 5.059-0.986-0.143z"></path>
<path d="M10.224 21.643c-5.842-1.527-6.772-5.909-6.838-6.041l-0.066-0.199c-0.332-0.797-0.133-1.726 0.465-2.324 0.531-0.598 1.062-1.195 1.859-1.062 0.332 0.133 0.664 0.332 0.996 0.531 1.394 0.996 2.921 1.793 4.581 2.456 3.585 1.527 6.108 1.195 6.174 1.195 2.191-0.199 2.921 3.32 3.054 3.718l-0.996 0.199c-0.199-0.863-0.863-3.054-1.925-2.988-0.066 0-2.788 0.465-6.639-1.261-1.66-0.664-3.253-1.527-4.78-2.523-0.199-0.133-0.398-0.266-0.598-0.332-0.133 0-0.465 0.199-0.863 0.73-0.398 0.332-0.531 0.929-0.266 1.394 0 0.066 0.066 0.199 0.066 0.266 0.066 0.199 0.863 3.983 6.108 5.311l-0.332 0.929z"></path>
</svg>
