<!-- Generated by IcoMoon.io -->
<svg version="1.1" xmlns="http://www.w3.org/2000/svg" width="32" height="32" viewBox="0 0 32 32">
<title>scale</title>
<path d="M15.897 27.164c-0.154 0-0.257-0.103-0.257-0.257v-21.608c0-0.154 0.103-0.257 0.257-0.257s0.257 0.103 0.257 0.257v21.608c0 0.154-0.103 0.257-0.257 0.257z"></path>
<path d="M23.151 31.588h-14.662c-0.154 0-0.257-0.103-0.257-0.257 0-0.823 0.309-1.543 0.875-2.161 0.566-0.566 1.338-0.875 2.161-0.875h9.106c1.646 0 3.035 1.338 3.035 3.035 0 0.051-0.051 0.154-0.051 0.206-0.051 0-0.154 0.051-0.206 0.051zM8.746 31.074h14.148c-0.154-1.286-1.183-2.264-2.521-2.264 0 0 0 0 0 0h-9.106c-0.669 0-1.338 0.257-1.801 0.72-0.412 0.412-0.669 0.977-0.72 1.543z"></path>
<path d="M0.154 14.096c-0.051 0-0.103 0-0.154-0.051-0.103-0.103-0.103-0.257-0.051-0.36l5.814-7.048c0.103-0.103 0.257-0.103 0.36-0.051 0.103 0.103 0.103 0.257 0.051 0.36l-5.814 7.048c-0.051 0.051-0.154 0.103-0.206 0.103z"></path>
<path d="M5.968 18.058c-3.344 0-6.071-1.904-6.071-4.219 0-0.154 0.103-0.257 0.257-0.257h11.627c0.154 0 0.257 0.103 0.257 0.257 0 2.315-2.727 4.219-6.071 4.219zM0.412 14.096c0.206 1.904 2.624 3.447 5.556 3.447s5.35-1.543 5.556-3.447h-11.113z"></path>
<path d="M11.781 14.096c-0.051 0-0.154-0.051-0.206-0.103l-5.814-7.048c-0.103-0.103-0.051-0.257 0.051-0.36s0.257-0.051 0.36 0.051l5.813 7.048c0.103 0.103 0.051 0.257-0.051 0.36-0.051 0.051-0.103 0.051-0.154 0.051z"></path>
<path d="M10.238 8.643c-0.051 0-0.154 0-0.206 0-1.543 0-3.087-0.566-4.219-1.646-0.103-0.103-0.103-0.257 0-0.36s0.257-0.103 0.36 0c1.080 1.029 2.469 1.543 4.013 1.543 1.492 0.051 2.932-0.514 4.013-1.543 0.103-0.103 0.257-0.103 0.36 0s0.103 0.257 0 0.36c-1.235 1.080-2.727 1.646-4.322 1.646z"></path>
<path d="M31.588 14.096c-0.051 0-0.154-0.051-0.206-0.103l-5.814-7.048c-0.103-0.103-0.051-0.257 0.051-0.36s0.257-0.051 0.36 0.051l5.814 7.048c0.103 0.103 0.051 0.257-0.051 0.36-0.051 0.051-0.103 0.051-0.154 0.051z"></path>
<path d="M25.775 18.058c-3.344 0-6.071-1.904-6.071-4.219 0-0.154 0.103-0.257 0.257-0.257h11.627c0.154 0 0.257 0.103 0.257 0.257 0 2.315-2.727 4.219-6.071 4.219zM20.219 14.096c0.206 1.904 2.675 3.447 5.556 3.447 2.932 0 5.35-1.543 5.556-3.447h-11.113z"></path>
<path d="M19.961 14.096c-0.051 0-0.103 0-0.154-0.051-0.103-0.103-0.103-0.257-0.051-0.36l5.814-7.048c0.103-0.103 0.257-0.103 0.36-0.051 0.103 0.103 0.103 0.257 0.051 0.36l-5.814 7.048c-0.051 0.051-0.154 0.103-0.206 0.103z"></path>
<path d="M21.608 8.643c-1.543 0-3.087-0.566-4.322-1.646-0.103-0.103-0.103-0.257 0-0.36s0.257-0.103 0.36 0c2.264 2.058 5.711 2.058 7.974 0 0.103-0.103 0.257-0.103 0.36 0s0.103 0.257 0 0.36c-1.286 1.080-2.83 1.646-4.373 1.646z"></path>
<path d="M15.949 3.91c-0.72 0-1.338-0.617-1.338-1.338s0.617-1.338 1.338-1.338c0.72 0 1.338 0.617 1.338 1.338s-0.617 1.338-1.338 1.338zM15.949 1.749c-0.463 0-0.823 0.36-0.823 0.823s0.36 0.823 0.823 0.823 0.823-0.36 0.823-0.823-0.36-0.823-0.823-0.823z"></path>
</svg>
