<!-- Generated by IcoMoon.io -->
<svg version="1.1" xmlns="http://www.w3.org/2000/svg" width="31" height="32" viewBox="0 0 31 32">
<title>search</title>
<path d="M13.043 26.078c-7.199 0-13.035-5.836-13.035-13.035s5.836-13.035 13.035-13.035c7.199 0 13.035 5.836 13.035 13.035-0.008 7.196-5.839 13.027-13.035 13.035zM13.043 1.043c-6.628 0-12 5.373-12 12s5.373 12 12 12c6.627 0 12-5.373 12-12-0.008-6.624-5.376-11.992-11.999-12z"></path>
<path d="M30.046 31.992c-0.146-0-0.278-0.061-0.372-0.159l-8.336-8.778c-0.052-0.080-0.083-0.177-0.083-0.282 0-0.286 0.232-0.518 0.518-0.518 0.12 0 0.231 0.041 0.319 0.11l8.335 8.749c0.090 0.093 0.145 0.219 0.145 0.359 0 0.286-0.232 0.517-0.517 0.518z"></path>
</svg>
