<!-- Generated by IcoMoon.io -->
<svg version="1.1" xmlns="http://www.w3.org/2000/svg" width="22" height="32" viewBox="0 0 22 32">
<title>sim</title>
<path d="M0 30.964v-23.32c0-0.324 0.13-0.583 0.324-0.777l7.19-6.543c0.194-0.194 0.453-0.259 0.713-0.259l12.372-0.065c0.583 0 1.036 0.453 1.036 1.036 0 0 0 0 0 0v29.927c0 0.583-0.453 1.036-1.036 1.036h-19.563c-0.583 0-1.036-0.453-1.036-1.036zM20.664 1.036l-0.065-0.065-12.437 0.065-7.19 6.478v23.385c0 0.065 0 0.065 0.065 0.065h19.563c0.065 0 0.065 0 0.065-0.065v-29.862z"></path>
<path d="M3.692 27.66v-15.028c0-0.259 0.065-0.453 0.259-0.648l4.599-4.211c0.13-0.13 0.324-0.194 0.583-0.194h7.968c0.453 0 0.842 0.389 0.842 0.842 0 0 0 0 0 0v19.239c0 0.453-0.389 0.842-0.842 0.842 0 0 0 0 0 0h-12.567c-0.453 0-0.842-0.389-0.842-0.842 0 0 0 0 0 0zM4.664 12.696v14.834h12.308v-18.98l-7.773 0.065-4.534 4.081z"></path>
</svg>
