<!-- Generated by IcoMoon.io -->
<svg version="1.1" xmlns="http://www.w3.org/2000/svg" width="32" height="32" viewBox="0 0 32 32">
<title>smartphone</title>
<path d="M23.499 0.937c0.194 0 0.388 0.194 0.388 0.388v29.285c0 0.194-0.194 0.388-0.388 0.388h-14.998c-0.194 0-0.388-0.194-0.388-0.388v-29.285c0-0.194 0.194-0.388 0.388-0.388h14.998zM23.499-0.032h-14.998c-0.776 0-1.358 0.646-1.358 1.358v29.285c0 0.776 0.646 1.358 1.358 1.358h15.063c0.776 0 1.358-0.646 1.358-1.358v-29.285c0-0.711-0.646-1.358-1.422-1.358v0z"></path>
<path d="M22.465 6.044v18.812h-12.929v-18.812h12.929zM23.434 5.075h-14.869v20.752h14.804v-20.752h0.065z"></path>
<path d="M16 30.352c-0.905 0-1.681-0.776-1.681-1.681s0.776-1.681 1.681-1.681c0.905 0 1.681 0.776 1.681 1.681s-0.776 1.681-1.681 1.681zM16 27.96c-0.388 0-0.711 0.323-0.711 0.711s0.323 0.711 0.711 0.711 0.711-0.323 0.711-0.711-0.323-0.711-0.711-0.711z"></path>
</svg>
