<!-- Generated by IcoMoon.io -->
<svg version="1.1" xmlns="http://www.w3.org/2000/svg" width="25" height="32" viewBox="0 0 25 32">
<title>stayincontrol</title>
<path d="M12.274 32c6.779 0 12.274-5.495 12.274-12.274s-5.495-12.274-12.274-12.274c-6.779 0-12.274 5.495-12.274 12.274s5.495 12.274 12.274 12.274v0zM12.274 31.123c-6.295 0-11.397-5.103-11.397-11.397s5.103-11.397 11.397-11.397c6.295 0 11.397 5.103 11.397 11.397s-5.103 11.397-11.397 11.397v0zM11.836 4.384v6.702h0.877v-6.702h-0.877zM11.836 28.055v3.507h0.877v-3.507h-0.877zM24.11 19.288h-3.507v0.877h3.507v-0.877zM3.945 19.288h-3.507v0.877h3.507v-0.877zM12.178 20.852c0.673 0 1.219-0.547 1.219-1.22s-0.546-1.22-1.219-1.22c-0.673 0-1.219 0.547-1.219 1.22s0.546 1.22 1.219 1.22v0zM12.178 19.975c-0.189 0-0.342-0.154-0.342-0.344s0.153-0.344 0.342-0.344c0.189 0 0.342 0.154 0.342 0.344s-0.153 0.344-0.342 0.344v0zM14.735 21.281l-7.204-6.377-0.581 0.656 7.204 6.377 0.581-0.657zM12.274 7.014c1.937 0 3.507-1.57 3.507-3.507s-1.57-3.507-3.507-3.507c-1.937 0-3.507 1.57-3.507 3.507s1.57 3.507 3.507 3.507v0zM12.274 6.137c-1.453 0-2.63-1.178-2.63-2.63s1.178-2.63 2.63-2.63c1.453 0 2.63 1.178 2.63 2.63s-1.178 2.63-2.63 2.63v0zM10.521 3.945h3.507v-0.877h-3.507v0.877zM19.012 8.67l2.461 1.985 0.55-0.682-2.461-1.985-0.55 0.682z"></path>
</svg>
