<!-- Generated by IcoMoon.io -->
<svg version="1.1" xmlns="http://www.w3.org/2000/svg" width="37" height="32" viewBox="0 0 37 32">
<title>twitter</title>
<path d="M22.91 1.224c-3.303 1.202-5.39 4.302-5.153 7.694l0.080 1.309-1.321-0.16c-4.808-0.614-9.010-2.697-12.578-6.198l-1.744-1.736-0.449 1.282c-0.951 2.858-0.343 5.878 1.638 7.909 1.057 1.122 0.818 1.282-1.003 0.614-0.634-0.213-1.19-0.374-1.242-0.294-0.184 0.187 0.449 2.618 0.951 3.581 0.687 1.337 2.087 2.645 3.621 3.421l1.295 0.614-1.533 0.026c-1.479 0-1.533 0.026-1.374 0.589 0.528 1.736 2.616 3.581 4.941 4.382l1.638 0.56-1.426 0.855c-2.113 1.231-4.598 1.925-7.082 1.976-1.189 0.026-2.166 0.134-2.166 0.215 0 0.266 3.224 1.761 5.099 2.351 5.629 1.736 12.314 0.987 17.335-1.977 3.568-2.111 7.134-6.305 8.8-10.367 0.899-2.162 1.797-6.118 1.797-8.013 0-1.23 0.080-1.39 1.559-2.858 0.873-0.855 1.691-1.79 1.85-2.057 0.265-0.509 0.237-0.509-1.11-0.054-2.246 0.802-2.563 0.695-1.453-0.507 0.818-0.855 1.797-2.405 1.797-2.858 0-0.080-0.395 0.053-0.846 0.294-0.475 0.265-1.533 0.666-2.326 0.906l-1.426 0.455-1.295-0.882c-0.714-0.48-1.717-1.015-2.246-1.175-1.349-0.374-3.41-0.321-4.626 0.106v0z"></path>
</svg>
