<!-- Generated by IcoMoon.io -->
<svg version="1.1" xmlns="http://www.w3.org/2000/svg" width="19" height="32" viewBox="0 0 19 32">
<title>uspphone</title>
<path d="M1.844 0.96c-0.488 0-0.884 0.397-0.884 0.884v28.115c0 0.487 0.396 0.883 0.884 0.883h14.408c0.487 0 0.884-0.396 0.884-0.883v-28.115c0-0.487-0.397-0.884-0.884-0.884h-14.408zM16.251 31.802h-14.408c-1.017 0-1.844-0.827-1.844-1.843v-28.115c0-1.017 0.827-1.844 1.844-1.844h14.408c1.017 0 1.844 0.827 1.844 1.844v28.115c0 1.016-0.827 1.843-1.844 1.843v0z"></path>
<path d="M9.047 27.212c-0.354 0-0.642 0.287-0.642 0.641s0.288 0.642 0.642 0.642c0.354 0 0.641-0.288 0.641-0.642s-0.287-0.641-0.641-0.641zM9.047 29.455c-0.883 0-1.602-0.719-1.602-1.602s0.719-1.601 1.602-1.601c0.883 0 1.601 0.718 1.601 1.601s-0.718 1.602-1.601 1.602z"></path>
<path d="M1.92 25.209v-19.99h14.255v19.99h-14.255zM2.88 24.249h12.335v-18.070h-12.335v18.070z"></path>
</svg>
