<!-- Generated by IcoMoon.io -->
<svg version="1.1" xmlns="http://www.w3.org/2000/svg" width="37" height="32" viewBox="0 0 37 32">
<title>warning</title>
<path d="M17.744 2.976c0.451-0.768 0.986-0.767 1.436 0l15.262 25.979c0.449 0.765 0.201 1.199-0.69 1.199h-30.58c-0.887 0-1.137-0.437-0.69-1.199l15.262-25.979zM16.683 2.353l-15.262 25.979c-0.93 1.582-0.087 3.053 1.751 3.053h30.58c1.842 0 2.683-1.467 1.751-3.053l-15.262-25.979c-0.926-1.577-2.632-1.578-3.559 0v0z"></path>
<path d="M17.846 12.308h1.231v8.615h-1.231v-8.615z"></path>
<path d="M19.692 24.615c0 0.68-0.551 1.231-1.231 1.231s-1.231-0.551-1.231-1.231c0-0.68 0.551-1.231 1.231-1.231s1.231 0.551 1.231 1.231z"></path>
</svg>
