<!-- Generated by IcoMoon.io -->
<svg version="1.1" xmlns="http://www.w3.org/2000/svg" width="32" height="32" viewBox="0 0 32 32">
<title>whatsapp</title>
<path d="M32 15.559c0 8.514-7.033 15.417-15.709 15.417-2.755 0-5.342-0.696-7.594-1.918l-8.697 2.733 2.836-8.271c-1.43-2.323-2.254-5.048-2.254-7.96 0-8.514 7.033-15.417 15.71-15.417s15.709 6.902 15.709 15.417zM16.291 2.598c-7.283 0-13.207 5.815-13.207 12.961 0 2.836 0.935 5.463 2.516 7.599l-1.65 4.813 5.076-1.595c2.085 1.354 4.583 2.144 7.267 2.144 7.282 0 13.207-5.814 13.207-12.961s-5.925-12.962-13.208-12.962zM24.224 19.11c-0.097-0.157-0.353-0.252-0.738-0.441s-2.279-1.103-2.631-1.229c-0.353-0.126-0.61-0.19-0.867 0.188s-0.994 1.229-1.22 1.481c-0.225 0.253-0.449 0.284-0.834 0.095s-1.625-0.588-3.096-1.876c-1.145-1.001-1.918-2.238-2.142-2.616s-0.023-0.582 0.169-0.77c0.174-0.169 0.385-0.441 0.578-0.662s0.257-0.378 0.385-0.63c0.129-0.252 0.065-0.473-0.032-0.662s-0.867-2.048-1.188-2.805-0.641-0.63-0.866-0.63c-0.224 0-0.481-0.032-0.738-0.032s-0.674 0.095-1.027 0.473c-0.353 0.378-1.347 1.293-1.347 3.152s1.379 3.656 1.572 3.908c0.192 0.252 2.663 4.192 6.578 5.705 3.915 1.512 3.915 1.007 4.621 0.944s2.278-0.914 2.6-1.796c0.32-0.883 0.32-1.64 0.224-1.797z"></path>
</svg>
