<!-- Generated by IcoMoon.io -->
<svg version="1.1" xmlns="http://www.w3.org/2000/svg" width="32" height="32" viewBox="0 0 32 32">
<title>worldcredits</title>
<path d="M29.64 13.52c-0.528 0.36-1.064 0.616-1.6 0.8-0.176 0.088-0.176 0.088-0.088 0.272 0.088 0.088 0.176 0.176 0.36 0.176 0.36-0.088 0.712-0.176 1.064-0.272-0.088 0.8-0.36 1.416-0.976 1.944-0.36 0.272-0.616 0.712-0.976 1.064-0.36 0.36-0.272 0.888-0.088 1.328 0.088 0.36 0.088 0.712 0.088 0.976 0 0.272-0.176 0.44-0.44 0.616-0.36 0.272-0.8 0.44-0.528 1.064 0.088 0.176 0 0.44-0.272 0.528-0.088 0-0.272 0.088-0.176 0.176 0.088 0.44-0.36 0.712-0.528 0.976-0.44 0.712-1.16 0.528-1.776 0.712-0.176 0-0.36-0.176-0.272-0.36 0-0.44-0.176-0.712-0.36-0.976-0.176-0.176-0.176-0.44-0.176-0.712 0-0.36-0.088-0.712-0.36-0.976-0.272-0.44-0.272-0.888 0-1.24 0.36-0.712 0.088-1.328-0.272-1.864-0.272-0.44-0.44-0.8-0.272-1.24 0.088-0.36-0.088-0.528-0.44-0.44-0.176 0-0.272 0-0.272-0.088-0.176-0.44-0.528-0.36-0.8-0.176-0.528 0.36-1.064 0.088-1.6 0.272-0.36 0.088-0.712-0.36-0.976-0.8-0.088-0.176-0.272-0.36-0.36-0.528-0.272-0.272-0.36-0.616-0.272-0.976 0.088-0.272 0.088-0.528 0.088-0.8-0.088-0.528 0.36-1.416 0.8-1.688 0.272-0.176 0.44-0.272 0.44-0.616 0-0.176 0.176-0.36 0.36-0.528 0.176-0.088 0.36-0.272 0.36-0.528 0-0.176-0.176-0.176-0.36-0.176-0.088 0-0.088-0.088-0.088-0.176-0.088-0.36 0.176-0.616 0.088-0.976 0-0.088 0.176-0.176 0.272-0.176h0.528c0.176 0 0.44 0.176 0.44-0.176 0.088-0.272 0-0.44-0.272-0.616-0.088-0.088-0.272 0-0.272-0.176 0.088-0.088 0.272 0 0.36-0.088 0.392-0.2 0.832 0.072 0.832-0.376 0.176 0 0.36-0.088 0.44-0.272 0.088-0.176 0.176-0.176 0.36-0.176 0.36 0 0.36-0.176 0.272-0.36-0.088-0.176 0.088-0.272 0.176-0.36 0.272-0.088 0.088 0.176 0.176 0.272 0 0.088 0 0.272 0.176 0.176h0.088c0.528 0.088 0.976 0 1.24-0.528 0.176 0 0.272-0.088 0.176-0.272l5.688 8.36zM6.248 15.016c0.088-0.088 0.272 0 0.36 0.088s0.272 0.088 0.272 0c0.088-0.36 0.36-0.36 0.616-0.528 0.272-0.176 0.44 0 0.616 0.088 0.36 0.088 0.616 0.36 0.976 0.176 0.088-0.088 0.272 0 0.272 0.088 0.176 0.272 0.528 0.36 0.712 0.712 0.088 0.088 0.176 0.176 0.272 0.176 0.712-0.088 0.888 0.44 1.064 0.976 0 0.088 0 0.272 0.176 0.272 0.528 0.088 0.888 0.528 1.416 0.528 0.44 0 0.712 0.44 0.976 0.616 0.176 0.088 0.176 0.528 0 0.712-0.44 0.528-0.616 1.16-0.616 1.864-0.088 0.528-0.176 0.888-0.8 1.064-0.36 0.088-0.616 0.272-0.616 0.8s-0.44 0.976-0.712 1.416c-0.088 0.176-0.36 0-0.44 0.088 0.36 0.44 0.36 0.44-0.272 0.616-0.088 0-0.176 0-0.176 0.088-0.088 0.272-0.176 0.272-0.36 0.36 0.44 0.272 0.272 0.528 0.088 0.8-0.176 0.176-0.088 0.272 0.088 0.36 0.272 0.088 0.272 0.176 0.088 0.36-0.088 0.176-0.272 0.36-0.088 0.528 0.088 0.088 0 0.176-0.088 0.272h-0.088c-0.088 0-0.176 0.088-0.176 0.088-0.44-0.272-0.8-0.616-0.976-1.24-0.088-0.272-0.088-0.528 0-0.888 0.088-0.272-0.176 0.088-0.272-0.176-0.088-0.36-0.272-0.712-0.176-1.064 0.088-1.16-0.176-2.216-0.176-3.376 0-0.272-0.176-0.616-0.44-0.712-0.712-0.272-0.888-0.888-1.24-1.416-0.088-0.272-0.272-0.528-0.44-0.712-0.088-0.088-0.176-0.272-0.088-0.36 0.176-0.44 0-0.976 0.44-1.416s0.36-0.888-0.088-1.328c-0.104 0.176-0.104 0.176-0.104 0.080v0zM7.664 5.536c0.088 0.088 0.176 0.176 0.36 0.176 0.36 0.088 0.616 0.176 0.44 0.712 0.176-0.36 0.44-0.616 0.712-0.712 0.088 0 0.176-0.088 0.176-0.176 0-0.44 0.36-0.712 0.528-0.976 0.616-0.088 0.8-0.088 1.064 0.44 0.088 0.176 0.176 0.176 0.36 0.088 0.088-0.088 0.176-0.176 0.36-0.088 0.088 0.44 0 0.888 0.44 1.16 0.272 0.176 0 0.44 0 0.616 0 0.088-0.088 0.088 0.088 0.176 0.272 0.088 0.176 0.272 0.176 0.44-0.088 0.272-0.272 0-0.36 0.088-0.272 0.088-0.44-0.272-0.712 0 0.088-0.36 0.44-0.44 0.44-0.712-0.272 0-0.44 0.176-0.712 0.176-0.176 0-0.36 0-0.528 0.088 0 0.088 0.176 0.176 0 0.272-0.088 0.088-0.176 0.176-0.176 0.272 0.088 0.088 0.176 0.088 0.272 0.176 0.088 0.088 0.088 0.088 0.088 0.176-0.176 0.088-0.44 0.176-0.616 0.272s-0.176-0.176-0.272-0.176c-0.272 0.088-0.616 0.088-0.712 0.36-0.088 0.272-0.176 0.272-0.36 0.272-0.44 0.176-0.8 0.528-0.976 1.064 0 0.176-0.176 0.176-0.272 0.272-0.272 0.176-0.44 0.272-0.712 0.44s-0.36 0.36-0.272 0.616c0 0.272 0.088 0.616-0.088 0.888-0.176-0.176-0.272-0.36-0.272-0.528s0.088-0.36-0.088-0.44c-0.272-0.088-0.616-0.272-0.888 0-0.088 0.088-0.272 0.088-0.36 0.088-0.44-0.176-0.888 0-1.064 0.36-0.272 0.44-0.528 1.064-0.176 1.6 0.176 0.272 0.712 0.272 0.976-0.088 0.088-0.088 0.088-0.176 0.088-0.272 0.176-0.088 0.36-0.176 0.528-0.088 0.176 0.088 0 0.272-0.088 0.36-0.088 0.272-0.176 0.44-0.272 0.712h0.088c0.712 0 0.712 0 0.616 0.8 0.024 0.52 0.296 0.704 0.736 0.608v0.088c-0.088 0.176-0.088 0.528-0.44 0.176-0.272-0.176-0.528-0.272-0.616-0.616-0.088-0.176-0.176-0.36-0.44-0.36-0.272-0.088-0.616-0.176-0.8-0.44-0.088-0.088-0.176-0.088-0.272-0.088-0.712 0.176-1.16-0.272-1.6-0.616-0.36-0.272-0.176-0.712-0.088-0.976 0.616-2.040 1.504-3.816 2.928-5.408l2.768-1.272zM12.096 3.312c0.088 0.36 0.272 0.44 0.528 0.616-0.176 0.176-0.36 0.272-0.616 0.272 0 0-0.088-0.088-0.088 0-0.088 0.088 0 0.176 0 0.272l-0.272 0.272c-0.36 0.272-0.616 0.272-0.888-0.088-0.088-0.44-0.36-0.272-0.528-0.44 0.088-0.44 0.528-0.176 0.712-0.36l1.152-0.544zM18.304 2.784c-0.088 0.616-0.616 0.616-1.064 0.712-0.36 0.088-0.712 0.36-1.064 0.36-0.616 0.088-0.976 0.44-1.328 0.976-0.176 0.272-0.616 0.176-0.888 0-0.272-0.36-0.272-1.064 0.088-1.328 0-0.176 0.36-0.272 0.088-0.44-0.176 0-0.088-0.088-0.088-0.176 0.176-0.44 0-0.616-0.44-0.616-0.272 0-0.44 0.088-0.712 0l5.408 0.512zM23.72 4.984c-0.176 0.36-0.176 0.8-0.616 0.888-0.368-0.072-0.536 0.016-0.536-0.168-0.088-0.528-0.088-0.528-0.528-0.36-0.176 0.088-0.36 0.088-0.44-0.176-0.088-0.264-0.176-0.528 0.176-0.712s0.712-0.36 0.976-0.712l0.968 1.24zM20.88 6.688c-0.36 0.088-0.712 0.088-0.976 0.176 0-0.272 0.272-0.528 0.088-0.888 0 0-0.088 0 0-0.088-0.176-0.176-0.272-0.36-0.088-0.528 0.176-0.088 0.36-0.272 0.44 0 0.088 0.44 0.36 0.712 0.616 0.976 0.008 0.080-0.080 0.256-0.080 0.352v0zM17.688 3.936c0-0.088 0.176-0.176 0.176-0.176 0.272 0.088 0.528 0.088 0.888 0 0.176 0 0.272 0 0.36 0.176s-0.088 0.176-0.176 0.176c-0.272 0.088-0.528 0.176-0.8 0.088-0.36 0.088-0.36-0.088-0.448-0.264v0zM7.488 12.896c-0.712 0.088-0.976-0.712-1.688-0.44 0.616-0.36 0.888-0.184 1.688 0.44v0zM7.752 12.896c0.272 0 0.528 0 0.712 0.272-0.272 0-0.44 0.088-0.616 0.088-0.184-0.096-0.184-0.184-0.096-0.36v0zM24.072 9.352c-0.088-0.096-0.088-0.272-0.176-0.28-0.184-0.712-0.8-0.888-1.24-1.328 0 0.36 0.176 0.536 0.44 0.712 0.44 0.184 0.344 0.44 0.176 0.712h-0.088c-0.176 0.264-0.36 0.088-0.528 0.176l-0.272 0.272c0.088 0.176-0.272 0.528 0.088 0.616 0.44 0.088 0.712 0.44 1.16 0.528 0.184 0 0.272 0.096 0.272-0.176s0.184-0.36 0.36-0.272c0.616 0.36 1.16 0.36 1.776 0.36 0.184 0 0.272 0 0.36-0.176 0.088-0.272 0.264-0.616 0.088-0.888h-0.088c-0.44 0.088-0.8-0.088-1.24 0-0.184-0.088-0.44-0.088-0.712-0.176-0.208 0.36-0.296 0-0.376-0.080v0zM23.104 8.744c-0.624-0.184-0.8-1.24-1.6-0.712 0 0.088-0.088 0-0.176 0-0.096 0-0.184 0.088-0.272 0.176-0.184 0.36-0.624 0.528-0.712 0.976 0 0.088-0.176 0.176-0.36 0.176s-0.36 0-0.36 0.176c0.088 0.264 0.272 0.088 0.44 0.176 0.184 0.088 0.272 0 0.36-0.088 0.528-0.272 1.16-0.184 1.776-0.272 0.088 0 0.176 0.088 0.176 0.176 0.184 0.096 0.272 0 0.272-0.176 0.176-0.088 0.44 0 0.616-0.176-0.088 0-0.088 0 0 0-0.080-0.096-0.080-0.272-0.16-0.432v0zM26.288 11.296c0.088 0.176 0.184 0.36 0.272 0.536 0.176 0.272 0.36 0.528 0.44 0.888 0.088 0.616 0.528 1.144 1.064 1.504-0.176-1.064-1.336-2.928-1.776-2.928v0zM29.192 10.616v0c0-0.536-4.216-4.664-4.688-4.664s2.976 4.128 2.976 4.664c0 0.536 0.384 0.976 0.856 0.976s0.856-0.44 0.856-0.976zM32 16c0 8.84-7.16 16-16 16s-16-7.16-16-16c0-8.84 7.16-16 16-16v2.912c-3.616 0-6.88 1.464-9.256 3.832-2.368 2.376-3.832 5.64-3.832 9.256s1.464 6.88 3.832 9.256c2.376 2.368 5.64 3.832 9.256 3.832s6.88-1.464 9.256-3.832c2.368-2.376 3.832-5.64 3.832-9.256s-1.464-6.88-3.832-9.256c-2.376-2.368-5.64-3.832-9.256-3.832v-2.912c8.84 0 16 7.16 16 16z"></path>
</svg>
