<?xml version="1.0" encoding="UTF-8"?>
<svg width="13px" height="13px" viewBox="0 0 13 13" version="1.1" xmlns="http://www.w3.org/2000/svg" xmlns:xlink="http://www.w3.org/1999/xlink">
    <!-- Generator: Sketch 42 (36781) - http://www.bohemiancoding.com/sketch -->
    <title>price</title>
    <desc>Created with Sketch.</desc>
    <defs></defs>
    <g id="Desktop" stroke="none" stroke-width="1" fill="none" fill-rule="evenodd">
        <g id="Startpage-generic-v1" transform="translate(-578.000000, -612.000000)" fill="#FFFFFF">
            <g id="Top">
                <g id="USP" transform="translate(40.000000, 589.163515)">
                    <g id="Price" transform="translate(538.607741, 18.908583)">
                        <path d="M6,4 C7.65741569,4 9.0717534,4.58564229 10.2430556,5.75694444 C11.4143577,6.9282466 12,8.34258431 12,10 C12,11.6574157 11.4143577,13.0717534 10.2430556,14.2430556 C9.0717534,15.4143577 7.65741569,16 6,16 C4.34258431,16 2.9282466,15.4143577 1.75694444,14.2430556 C0.585642292,13.0717534 0,11.6574157 0,10 C0,8.34258431 0.585642292,6.9282466 1.75694444,5.75694444 C2.9282466,4.58564229 4.34258431,4 6,4 L6,4 Z M6.75,13.6944444 C7.38889208,13.5925921 7.92360896,13.3634277 8.35416667,13.0069444 C8.78472437,12.6504612 9,12.1481514 9,11.5 C9,10.9907382 8.88889,10.5763905 8.66666667,10.2569444 C8.44444333,9.9374984 8.16666833,9.72222278 7.83333333,9.61111111 C7.49999833,9.49999944 7.13889083,9.41203736 6.75,9.34722222 C6.36110917,9.28240708 6.00000167,9.24074083 5.66666667,9.22222222 C5.33333167,9.20370361 5.05555667,9.13657465 4.83333333,9.02083333 C4.61111,8.90509201 4.5,8.73148264 4.5,8.5 C4.5,8.25925806 4.64814667,8.07407472 4.94444444,7.94444444 C5.24074222,7.81481417 5.59259056,7.75 6,7.75 C6.66667,7.75 7.33333,7.916665 8,8.25 L8.75,7 C8.26851611,6.63888708 7.60185611,6.40277833 6.75,6.29166667 L6.75,5.5 L5.25,5.5 L5.25,6.30555556 C4.61110792,6.40740792 4.07639104,6.63657229 3.64583333,6.99305556 C3.21527563,7.34953882 3,7.85184861 3,8.5 C3,9.00926181 3.11111,9.42360951 3.33333333,9.74305556 C3.55555667,10.0625016 3.83333167,10.2777772 4.16666667,10.3888889 C4.50000167,10.5000006 4.86110917,10.5879626 5.25,10.6527778 C5.63889083,10.7175929 5.99999833,10.7592592 6.33333333,10.7777778 C6.66666833,10.7962964 6.94444333,10.8634253 7.16666667,10.9791667 C7.38889,11.094908 7.5,11.2685174 7.5,11.5 C7.5,11.7407419 7.35185333,11.9259253 7.05555556,12.0555556 C6.75925778,12.1851858 6.40740944,12.25 6,12.25 C5.33333,12.25 4.66667,12.083335 4,11.75 L3.25,13 C3.73148389,13.3611129 4.39814389,13.5972217 5.25,13.7083333 L5.25,14.5 L6.75,14.5 L6.75,13.6944444 Z" id="price"></path>
                    </g>
                </g>
            </g>
        </g>
    </g>
</svg>