<?xml version="1.0" encoding="UTF-8"?>
<svg width="13px" height="13px" viewBox="0 0 13 13" version="1.1" xmlns="http://www.w3.org/2000/svg" xmlns:xlink="http://www.w3.org/1999/xlink">
    <!-- Generator: Sketch 42 (36781) - http://www.bohemiancoding.com/sketch -->
    <title>Group 2</title>
    <desc>Created with Sketch.</desc>
    <defs></defs>
    <g id="Desktop" stroke="none" stroke-width="1" fill="none" fill-rule="evenodd">
        <g id="Startpage-generic-v1" transform="translate(-1021.000000, -612.000000)">
            <g id="Top">
                <g id="USP" transform="translate(40.000000, 589.163515)">
                    <g id="Magic" transform="translate(980.555556, 17.980699)">
                        <g id="Group-18" transform="translate(1.000000, 0.000000)">
                            <g id="Group-2" transform="translate(0.000000, 5.000000)">
                                <rect id="Rectangle" fill="#E21B21" x="0" y="0" width="12" height="12"></rect>
                                <path d="M6.90011638,6.30244122 L6.10963708,6.30244122 C5.73351227,6.30244122 5.45342226,6.38078117 5.26950525,6.53778045 C5.08568035,6.69459723 4.99374487,6.91040851 4.99374487,7.18498616 C4.99374487,7.43716142 5.08425249,7.6410643 5.26526774,7.79651229 C5.44632905,7.95200592 5.69956615,8.02975273 6.02479482,8.02975273 L6.90011638,8.02975273 L6.90011638,6.30244122 L6.90011638,6.30244122 Z M4.01211715,3.30353131 L5.11179629,3.30353131 L5.93995256,5.47437379 L6.90011638,5.47437379 L6.90011638,3.30353131 L7.94392491,3.30353131 L7.94392491,8.85353131 L5.93995256,8.85353131 C5.24131661,8.85353131 4.7278413,8.69735329 4.39975693,8.38495164 C4.07162649,8.07245873 3.90756127,7.66834868 3.90756127,7.17234774 C3.90756127,6.43539557 4.25540533,5.9283075 4.95123162,5.65094665 L4.01211715,3.30353131 L4.01211715,3.30353131 Z" id="Fill-3" fill="#FFFFFF"></path>
                            </g>
                        </g>
                    </g>
                </g>
            </g>
        </g>
    </g>
</svg>